<svg xmlns="http://www.w3.org/2000/svg" viewBox="0 0 262.67 218.02"><defs><style>.a{fill:#fff;}</style></defs><title>caution-wht</title><path class="a" d="M146.32,23.52a17.77,17.77,0,0,0-30,0L17.4,178.79a17.77,17.77,0,0,0,15,27.32H230.29a17.77,17.77,0,0,0,15-27.32Z"/><path class="a" d="M258.23,175.09,154.89,12.92a27.93,27.93,0,0,0-47.11,0L4.44,175.09A27.92,27.92,0,0,0,28,218H234.68a27.92,27.92,0,0,0,23.55-42.93ZM254.63,201a22.47,22.47,0,0,1-19.95,11.81H28a22.75,22.75,0,0,1-19.19-35L112.15,15.7a22.75,22.75,0,0,1,38.37,0L253.87,177.87A22.48,22.48,0,0,1,254.63,201Z"/><path class="a" d="M245.27,178.79l-99-155.27a17.58,17.58,0,0,0-14.8-8.21v190.8h98.77A17.77,17.77,0,0,0,245.27,178.79Z"/><path class="a" d="M258.23,175.09,154.89,12.92A27.78,27.78,0,0,0,131.52,0V5.18a22.69,22.69,0,0,1,19,10.52L253.87,177.87a22.75,22.75,0,0,1-19.19,35H131.52V218H234.68a27.92,27.92,0,0,0,23.55-42.93Z"/></svg>