<svg xmlns="http://www.w3.org/2000/svg" viewBox="0 0 168.68 221.47"><defs><style>.a{fill:#7a97f9;}</style></defs><title>flexible-lte</title><path class="a" d="M21.43,12.05H45.52A3.46,3.46,0,0,1,49,15.51V32.79a5.72,5.72,0,0,0,5.69,5.69H114a5.7,5.7,0,0,0,5.69-5.69V15.51a3.46,3.46,0,0,1,3.46-3.46h24.09a21.51,21.51,0,0,1,21.44,21.44V200a21.51,21.51,0,0,1-21.44,21.44H21.43A21.49,21.49,0,0,1,0,200V33.49A21.49,21.49,0,0,1,21.43,12.05ZM42.06,19H21.43A14.58,14.58,0,0,0,6.92,33.49V200a14.58,14.58,0,0,0,14.51,14.52H147.24A14.58,14.58,0,0,0,161.76,200V33.49A14.58,14.58,0,0,0,147.24,19H126.61V32.79A12.63,12.63,0,0,1,114,45.4H54.67A12.63,12.63,0,0,1,42.06,32.79Z"/><path class="a" d="M21.43,26.43H45.52A3.46,3.46,0,0,1,49,29.89v2.9a5.72,5.72,0,0,0,5.69,5.69H114a5.7,5.7,0,0,0,5.69-5.69v-2.9a3.46,3.46,0,0,1,3.46-3.46h24.09a7.06,7.06,0,0,1,5,2.07h0a3.33,3.33,0,0,1,.25.28,7,7,0,0,1,1.82,4.71V200a7.06,7.06,0,0,1-2.07,5h0l-.28.25a7,7,0,0,1-4.71,1.82H21.43a7,7,0,0,1-5-2.07h0a3.33,3.33,0,0,1-.25-.28A7,7,0,0,1,14.38,200V33.49a7.06,7.06,0,0,1,2.07-5h0l.28-.25a7,7,0,0,1,4.7-1.82Zm20.64,6.92H21.37l0,0L18.89,31l2.44,2.44a.13.13,0,0,0,0,.1V200s0,.05,0,.06l0,0-2.45,2.44,2.45-2.43a.12.12,0,0,0,.09,0H147.3l0,0,2.44,2.44-2.43-2.44a.13.13,0,0,0,0-.1V33.49a.35.35,0,0,0,0-.06l0,0L149.78,31l-2.44,2.43a.13.13,0,0,0-.1,0H126.6a12.64,12.64,0,0,1-12.6,12H54.67a12.64,12.64,0,0,1-12.6-12Z"/><path class="a" d="M54.67,38.48H114a5.7,5.7,0,0,0,5.69-5.69V12.61A5.7,5.7,0,0,0,114,6.92H54.67A5.72,5.72,0,0,0,49,12.61V32.79a5.72,5.72,0,0,0,5.69,5.69ZM114,45.4H54.67A12.63,12.63,0,0,1,42.06,32.79V12.61A12.63,12.63,0,0,1,54.67,0H114a12.63,12.63,0,0,1,12.61,12.61V32.79A12.63,12.63,0,0,1,114,45.4Z"/><path class="a" d="M34.76,67.64a3.46,3.46,0,1,0,0,6.92H91.38a3.46,3.46,0,1,0,0-6.92Z"/><path class="a" d="M34.76,103a3.46,3.46,0,1,0,0,6.92H91.38a3.46,3.46,0,1,0,0-6.92Z"/><path class="a" d="M34.76,138.33a3.46,3.46,0,0,0,0,6.92H91.38a3.46,3.46,0,1,0,0-6.92Z"/><path class="a" d="M34.76,173.68a3.46,3.46,0,0,0,0,6.92H91.38a3.46,3.46,0,1,0,0-6.92Z"/><path class="a" d="M116.54,94.3h17.37a3.46,3.46,0,0,1,3.46,3.46v17.37a3.46,3.46,0,0,1-3.46,3.46H116.54a3.46,3.46,0,0,1-3.46-3.46V97.76a3.46,3.46,0,0,1,3.46-3.46Zm13.91,6.92H120v10.45h10.45Z"/><path class="a" d="M116.54,129.64h17.37a3.46,3.46,0,0,1,3.46,3.46v17.38a3.46,3.46,0,0,1-3.46,3.46H116.54a3.46,3.46,0,0,1-3.46-3.46V133.1a3.46,3.46,0,0,1,3.46-3.46Zm13.91,6.92H120V147h10.45Z"/><path class="a" d="M117.81,172.24a3.45,3.45,0,0,0-6,3.43l4.55,7.88,3-1.72-3,1.73a3.47,3.47,0,0,0,4.73,1.27l.2-.13,16.06-9.27a3.45,3.45,0,1,0-3.46-6l-13.27,7.67Z"/><path class="a" d="M117.81,66.2a3.45,3.45,0,0,0-6,3.43l4.55,7.88,3-1.72-3,1.73a3.47,3.47,0,0,0,4.73,1.27l.2-.13,16.06-9.27a3.45,3.45,0,1,0-3.46-6l-13.27,7.66Z"/></svg>