<svg xmlns="http://www.w3.org/2000/svg" viewBox="0 0 288.99 223.59"><defs><style>.a{fill:blue;fill-rule:evenodd;}</style></defs><title>puzzle</title><path class="a" d="M280.17,92.7a31.82,31.82,0,0,0-20.61-7.33,33.25,33.25,0,0,0-11.08,1.89l-.09,0A31.5,31.5,0,0,0,244.5,89V48a3.44,3.44,0,0,0-3.44-3.44H198.13a3.44,3.44,0,0,0-2,6.21A21.42,21.42,0,0,1,202.68,59a26.08,26.08,0,0,1,2.42,11.1,24.91,24.91,0,0,1-5.65,16.15,16.57,16.57,0,0,1-26.16,0,24.86,24.86,0,0,1-5.66-16.15A26.08,26.08,0,0,1,170.05,59a21.48,21.48,0,0,1,6.41-8,3.44,3.44,0,0,0-1.87-6.34h-44.3A3.44,3.44,0,0,0,126.85,48H77.15c6.25-4.58,10.41-12.74,10.41-22,0-14.36-9.93-26-22.18-26S43.2,11.63,43.2,26c0,9.29,4.15,17.45,10.41,22H0v47.4a28.25,28.25,0,0,1,18.5-6.6c14.35,0,26,9.92,26,22.18s-11.64,22.18-26,22.18A28.29,28.29,0,0,1,0,126.59V174H56.12c-7.63,4.11-12.92,13.14-12.92,23.63,0,14.36,9.92,26,22.18,26s22.18-11.63,22.18-26c0-10.49-5.3-19.52-12.93-23.63h52.22a3.45,3.45,0,0,0,3.44,3.45h44.3a3.44,3.44,0,0,0,2-6.21,21.26,21.26,0,0,1-6.58-8.16,26.08,26.08,0,0,1-2.42-11.1,24.86,24.86,0,0,1,5.66-16.15,16.57,16.57,0,0,1,26.16,0,24.87,24.87,0,0,1,5.65,16.15,26.15,26.15,0,0,1-2.42,11.11,21.52,21.52,0,0,1-6.41,8,3.44,3.44,0,0,0,1.86,6.34h42.93A3.45,3.45,0,0,0,244.5,174V133a31.5,31.5,0,0,0,3.89,1.69h0a33.44,33.44,0,0,0,11.16,1.91,31.78,31.78,0,0,0,20.61-7.34,23.38,23.38,0,0,0,0-36.59Zm-4.47,31.38a24.87,24.87,0,0,1-16.14,5.66,26.48,26.48,0,0,1-8.86-1.5h0a23.5,23.5,0,0,1-7.4-4.25,3.43,3.43,0,0,0-5.67,2.6h0v43.94H206.24a30.55,30.55,0,0,0,2.65-4.55,32.92,32.92,0,0,0,3.1-14,31.85,31.85,0,0,0-7.33-20.62,23.38,23.38,0,0,0-36.59,0,31.8,31.8,0,0,0-7.33,20.62,32.92,32.92,0,0,0,3.1,14,30.61,30.61,0,0,0,2.66,4.55H133.73V124.47a3.44,3.44,0,0,0-6.18-2.09,22.19,22.19,0,0,1-7.74,5.35,26.25,26.25,0,0,1-10.18,2,24.91,24.91,0,0,1-16.14-5.66,16.57,16.57,0,0,1,0-26.16,24.87,24.87,0,0,1,16.14-5.66,26.25,26.25,0,0,1,10.18,2,22,22,0,0,1,7.92,5.55,3.43,3.43,0,0,0,6-2.29h0V51.47H166.5A30.61,30.61,0,0,0,163.84,56a33,33,0,0,0-3.1,14,31.8,31.8,0,0,0,7.33,20.62,23.38,23.38,0,0,0,36.59,0A31.83,31.83,0,0,0,212,70.06a33,33,0,0,0-3.1-14,30.55,30.55,0,0,0-2.65-4.55h31.38v44a3.44,3.44,0,0,0,5.89,2.42,23.12,23.12,0,0,1,7.19-4.08l.08,0a26.6,26.6,0,0,1,8.78-1.47,24.87,24.87,0,0,1,16.14,5.66,16.55,16.55,0,0,1,0,26.16Z"/></svg>