<svg xmlns="http://www.w3.org/2000/svg" viewBox="0 0 178.09 225.89"><defs><style>.a{fill:blue;}</style></defs><title>service</title><path class="a" d="M171.79,182c-6.82-13.64-31-21.44-53.74-27.26a5.36,5.36,0,0,1-4-4.82L113,134.55c4.59-5,7.93-10.85,10.64-15.61a37.57,37.57,0,0,0,2.54-5.71l.61-.71c.16,0,.31,0,.47,0,4,0,8.29-1.77,12.26-5.22,7.59-6.61,13-18.54,7.93-27.65a21.41,21.41,0,0,0-1.77-2.7c3-9.2,10.11-36.93-7-47.28-2-8.3-11-29.7-49.59-29.7S41.5,21.4,39.46,29.7C22.58,39.91,29.32,67,32.34,76.6a21.12,21.12,0,0,0-2.08,3.08c-5,9.11.34,21,7.94,27.65,4,3.45,8.26,5.22,12.25,5.22.41,0,.82,0,1.23-.09a39.08,39.08,0,0,0,2.82,6.47c2.7,4.77,6,10.61,10.63,15.62L64,149.87a5.34,5.34,0,0,1-4,4.82C37.29,160.51,13.12,168.31,6.3,182,.79,193,.06,217.61,0,220.38a5.38,5.38,0,0,0,5.38,5.51H172.72a5.4,5.4,0,0,0,3.84-1.62,5.34,5.34,0,0,0,1.53-3.89C178,217.61,177.3,193,171.79,182Zm-97-31.31.58-8.19a31.08,31.08,0,0,0,27.39,0l.58,8.18a16.09,16.09,0,0,0,9,13.33c-3.75,5.61-11.25,13.76-23.31,13.76S69.44,169.59,65.71,164A16.08,16.08,0,0,0,74.77,150.64Zm57.64-51.43a13.05,13.05,0,0,1-2.91,2c.44-2,.87-4.22,1.3-6.53l7.72-7.86C138.94,90.41,136.49,95.67,132.41,99.21Zm-86-61a5.39,5.39,0,0,0,3.2-4.58c0-.23,1.86-22.83,39.43-22.83,37.09,0,39.35,22,39.43,22.83a5.36,5.36,0,0,0,3.19,4.58c11.05,4.89,6.92,24.4,4.34,33.36a11.9,11.9,0,0,0-2.09.14,2.66,2.66,0,0,0,0-.28,3.63,3.63,0,0,0-.1-.45,3.37,3.37,0,0,0-.09-.34,3.16,3.16,0,0,0-.16-.43l-.14-.33c-.07-.13-.14-.25-.22-.37l-.2-.34a3.88,3.88,0,0,0-.26-.31c-.09-.11-.17-.22-.26-.32s-.22-.2-.34-.3a2.18,2.18,0,0,0-.28-.25,4.89,4.89,0,0,0-.72-.46c-7.22-3.87-9.57-15.24-9.87-19.28a5.37,5.37,0,0,0-5.36-5H62.21a5.37,5.37,0,0,0-5.29,4.57c0,.14-.06.28-.08.43s0,.21,0,.3a40.58,40.58,0,0,1-1.56,7.31l-.18.56-.13.36a24,24,0,0,1-4.33,7.8l-.19.21c-.27.3-.56.59-.85.86s-.35.31-.53.46-.45.38-.68.55a12.35,12.35,0,0,1-1.4.89,5.38,5.38,0,0,0-2.8,4.27,11.16,11.16,0,0,0-2.1-.22C39.48,62.56,35.34,43.08,46.42,38.17Zm-1.16,61C41,95.54,38.53,90,39.18,86.37l8.11,8.26c.44,2.39.89,4.66,1.35,6.75A12.33,12.33,0,0,1,45.26,99.21Zm12.35-7.92-2.3-16.44C62.68,69.11,65.66,59.72,66.84,54h44.42c1.18,5.77,4.16,15.16,11.53,20.9l-2.28,16.3c-2.4,13.7-4.73,19.78-6.26,22.47-.29.51-.58,1-.86,1.5a46.49,46.49,0,0,1-19.22,5.45A6.2,6.2,0,1,0,94.4,127a58.79,58.79,0,0,0,12.79-2.34c-4.73,6.17-10.14,10.17-18.14,10.17-12.15,0-18.36-9.21-25.21-21.25C62.32,110.93,60,104.84,57.61,91.29ZM11,215.13c.52-8.75,1.92-22.37,4.92-28.37,4.5-9,25.8-15.93,39.12-19.62,4.22,7.31,14.8,21.33,34,21.33s29.8-14,34-21.33c13.32,3.69,34.62,10.62,39.12,19.62,3,6,4.4,19.62,4.93,28.37Z"/></svg>