<svg xmlns="http://www.w3.org/2000/svg" viewBox="0 0 208 222.33"><defs><style>.a{fill:#7a97f9;}</style></defs><title>watch-lte</title><path class="a" d="M112.12,63.81h-.25v63.8h65.61C177.34,92.35,148.13,63.81,112.12,63.81Z"/><path class="a" d="M182.14,64.24,195,51.68a6.66,6.66,0,0,0,0-9.52l-6.84-6.69a7,7,0,0,0-9.71,0l-14.28,14a96.4,96.4,0,0,0-40.57-14.39V20.94h3.56a6.07,6.07,0,0,0,6.11-6V6a6.06,6.06,0,0,0-6.11-6H96.61A6.06,6.06,0,0,0,90.5,6v9a6.07,6.07,0,0,0,6.11,6h3.56V35.13A96.36,96.36,0,0,0,61,48.88L47.35,35.47a7,7,0,0,0-9.71,0l-6.83,6.69a6.66,6.66,0,0,0,0,9.52l12,11.79a93.5,93.5,0,0,0-23.13,39.78l8.23-7.54,10.72,15.4c8-32.52,37.87-56.77,73.46-56.77,41.65,0,75.53,33.2,75.53,74s-33.88,74-75.53,74c-37.89,0-69.34-27.48-74.72-63.17H55.88L25.79,105.79,0,139.22H16.88c5.51,46.72,46.12,83.11,95.24,83.11,52.87,0,95.88-42.15,95.88-94A92.62,92.62,0,0,0,182.14,64.24Z"/></svg>