<svg xmlns="http://www.w3.org/2000/svg" xmlns:xlink="http://www.w3.org/1999/xlink" viewBox="0 0 1366 547"><defs><style>.a{fill:url(#a);}.b{fill:none;stroke-dasharray:11;}.b,.d,.e{stroke:#fff;stroke-miterlimit:10;}.c{fill:url(#b);}.d{fill:#fff;}.d,.e{stroke-width:2px;}.e{fill:url(#c);}.f{fill:#c64417;}.g{fill:#632013;}.h{fill:url(#d);}.i{fill:url(#e);}.j{fill:#f18335;}.k{fill:#3a1e17;}</style><linearGradient id="a" x1="683" y1="547" x2="683" gradientUnits="userSpaceOnUse"><stop offset="0" stop-color="#3fa9f5"/><stop offset="0.32" stop-color="#2a71f8"/><stop offset="1" stop-color="blue"/></linearGradient><linearGradient id="b" x1="1030.62" y1="190" x2="1030.62" y2="146.45" gradientUnits="userSpaceOnUse"><stop offset="0" stop-color="#17aebf"/><stop offset="0.12" stop-color="#16a3c3"/><stop offset="0.32" stop-color="#1286ce"/><stop offset="0.58" stop-color="#0c57df"/><stop offset="0.9" stop-color="#0317f7"/><stop offset="1" stop-color="blue"/></linearGradient><linearGradient id="c" x1="473.72" y1="-40.21" x2="590.72" y2="-40.21" gradientTransform="matrix(0.99, 0.16, -0.07, 1, 260.83, 262.94)" gradientUnits="userSpaceOnUse"><stop offset="0.4" stop-color="#3fa9f5"/><stop offset="0.57" stop-color="#3ca0f6"/><stop offset="0.69" stop-color="#2a71f9"/><stop offset="1" stop-color="blue"/></linearGradient><linearGradient id="d" x1="1032.86" y1="432.76" x2="1032.86" y2="376.76" xlink:href="#b"/><linearGradient id="e" x1="1226.65" y1="269.2" x2="1226.65" y2="230" xlink:href="#b"/></defs><title>1back</title><rect class="a" width="1366" height="547"/><path class="b" d="M823.88,316.64c13,4.18,25.73,11.34,39.07,13.73C875,332.76,887.08,328,898.51,322c5.09-3.58,10.81-7.16,15.88-10.75,31.77-23.88,55.9-64.48,82.58-105.09,5.08-7.16,9.53-13.13,14.61-19.1,1.9-3.59,3.81-6,5.72-9.56,26-31,52.08-54.93,83.21-45.38,32.39,10.75,55.89,47.77,83.2,80,5.62,6,10.73,12.07,16.29,16.6"/><path class="c" d="M1107.22,190a19.18,19.18,0,0,0,.78-5.44,19.44,19.44,0,0,0-36.38-9.54,29.54,29.54,0,0,0-43.34-13.78,30.33,30.33,0,0,0-56,10.88h-.36c-10.31,0-18.66,5.57-18.66,12.45a9.16,9.16,0,0,0,1.87,5.44Z"/><polyline class="d" points="774.62 330.34 773.4 330.11 728 321.47 819.99 264 809.32 299.29"/><line class="d" x1="819.16" y1="265.47" x2="778.67" y2="307.95"/><polygon class="e" points="729.76 321.76 830.85 341.11 849 288.08 729.76 321.76"/><path class="d" d="M732.05,321.91,841.31,311.5Z"/><rect class="f" x="976.38" y="312.55" width="29.3" height="234.45"/><rect class="f" x="1323.19" y="297.54" width="40.46" height="249.46"/><rect class="f" x="1331.41" y="250.03" width="24.02" height="144.64"/><polygon class="f" points="1343.42 221.83 1332.22 250.03 1354.62 250.03 1343.42 221.83"/><rect class="g" x="945" y="522.26" width="39.57" height="24.74"/><polygon class="g" points="1366 277.06 1366 547 1351.61 547 1351.61 299.95 1356.08 299.95 1356.08 277.06 1366 277.06"/><polygon class="f" points="1325.23 381.85 1325.23 355.72 1294.61 355.72 1294.61 381.85 1290.14 381.85 1290.14 547 1329.71 547 1329.71 381.85 1325.23 381.85"/><polygon class="g" points="1298.18 336.8 1298.18 547 1265.63 547 1265.63 336.8 1269.31 336.8 1269.31 317.96 1294.5 317.96 1294.5 336.8 1298.18 336.8"/><rect class="f" x="1201.65" y="346.95" width="21.07" height="200.05"/><polygon class="f" points="1193.01 257.71 1193.01 222.16 1186.8 222.16 1186.8 186.67 1172.52 186.67 1172.52 222.16 1166.31 222.16 1166.31 257.71 1161.38 257.71 1161.38 488.81 1197.94 488.81 1197.94 257.71 1193.01 257.71"/><path class="h" d="M1164,432.76a19.31,19.31,0,0,0,1.33-7c0-13.81-14.91-25-33.29-25-12.45,0-23.3,5.13-29,12.73-7.51-13.91-25.67-23.73-46.9-23.73a62.93,62.93,0,0,0-27.31,6c-9.07-11.39-25.64-19-44.6-19-26,0-47.48,14.31-51.32,33h-.61c-17.65,0-32,7.16-32,16a10.12,10.12,0,0,0,3.21,7Z"/><polygon class="f" points="1099.39 300.68 1099.39 212.78 1071.89 212.78 1071.89 464.05 1085.64 464.05 1085.64 514.21 1113.14 514.21 1113.14 338.42 1099.39 300.68"/><path class="i" d="M1295.6,269.2a17.5,17.5,0,0,0-32-13.49,26.6,26.6,0,0,0-39-12.4,27.3,27.3,0,0,0-50.42,9.8h-.32c-9.28,0-16.8,5-16.8,11.2a8.26,8.26,0,0,0,1.69,4.9Z"/><path class="f" d="M1273.24,547H1249.1V194.26l16.59,31.32c4.73,8.93,7.55,23.57,7.55,39.2Z"/><polygon class="g" points="1153.27 365.93 1153.27 334.54 1142.42 327.92 1124.29 327.92 1124.29 361.79 1120.52 361.79 1120.52 547 1121.51 547 1144.64 547 1145.64 547 1159.26 547 1159.26 369.18 1153.27 365.93"/><polygon class="g" points="1027.85 441.5 1027.85 547 989.1 547 989.1 434.21 992.87 434.21 992.87 400.81 1011 400.81 1011.86 401.33 1017.22 404.55 1019.12 405.69 1021.86 407.34 1021.86 438.3 1024.14 439.52 1027.85 441.5"/><polygon class="g" points="1201.51 326.67 1201.51 304.28 1175.45 304.28 1175.45 326.67 1171.75 326.67 1171.75 547 1205.21 547 1205.21 326.67 1201.51 326.67"/><polygon class="g" points="1121.55 499.73 1121.55 547 1061.65 547 1061.65 400.68 1065.35 400.68 1065.35 384.81 1091.41 384.81 1091.41 400.68 1095.11 400.68 1095.11 452.85 1105.61 452.85 1105.61 468.72 1109.32 468.72 1109.32 499.73 1121.55 499.73"/><polygon class="g" points="1261.17 448.98 1261.17 547 1227.71 547 1227.71 448.98 1231.41 448.98 1231.41 430.27 1235.43 430.27 1235.43 370.55 1237.43 370.55 1237.43 360.48 1251.45 360.48 1251.45 370.55 1253.44 370.55 1253.44 430.27 1257.47 430.27 1257.47 448.98 1261.17 448.98"/><rect class="j" x="1310.63" y="334.29" width="17.48" height="38.37"/><polygon class="k" points="1340.92 342.69 1328.11 334.29 1328.11 372.66 1340.92 378.38 1340.92 342.69"/><rect class="j" x="1306.69" y="366.13" width="23.61" height="51.81"/><rect class="k" x="1308.01" y="397.76" width="20.98" height="8.03"/><rect class="k" x="1308.01" y="382.25" width="20.98" height="8.03"/><rect class="k" x="1308.01" y="369.25" width="20.98" height="8.03"/><polygon class="k" points="1345.1 375.1 1330.3 366.13 1330.3 417.95 1345.1 423.3 1345.1 375.1"/><rect class="j" x="1301.9" y="410.05" width="31.06" height="136.95"/><rect class="k" x="1323.19" y="417.95" width="3.88" height="129.05"/><rect class="k" x="1314.61" y="417.95" width="3.89" height="129.05"/><rect class="k" x="1306.04" y="417.95" width="3.88" height="129.05"/><polygon class="k" points="1348.89 418.37 1348.89 547 1332.96 547 1332.96 410.05 1345.1 416.39 1348.89 418.37"/><rect class="j" x="1017.22" y="352.11" width="26.72" height="119.94"/><polygon class="k" points="1059.94 472.05 1043.94 472.05 1043.94 352.11 1059.94 361.72 1059.94 472.05"/><rect class="j" x="1011.66" y="401.33" width="37.04" height="145.67"/><rect class="k" x="1013.14" y="405.69" width="34.09" height="12.49"/><rect class="k" x="1013.14" y="427.03" width="34.09" height="12.49"/><rect class="k" x="1013.14" y="448.38" width="34.09" height="12.49"/><rect class="k" x="1013.14" y="469.72" width="34.09" height="12.49"/><rect class="k" x="1013.14" y="491.07" width="34.09" height="12.49"/><rect class="k" x="1013.14" y="512.41" width="34.09" height="12.49"/><rect class="k" x="1013.14" y="533.75" width="34.09" height="12.49"/><polygon class="k" points="1068.77 412.08 1068.77 547 1048.7 547 1048.7 401.33 1059.94 407.35 1061.65 408.27 1068.77 412.08"/><rect class="k" x="1017.89" y="354.94" width="24.57" height="6.97"/><rect class="k" x="1017.89" y="366.27" width="24.57" height="6.97"/><rect class="k" x="1017.89" y="377.59" width="24.57" height="6.97"/><rect class="k" x="1017.89" y="388.92" width="24.57" height="6.97"/><rect class="j" x="1149.14" y="424.06" width="26.48" height="122.94"/><rect class="k" x="1150.47" y="428" width="23.82" height="11.3"/><rect class="k" x="1150.47" y="447.31" width="23.82" height="11.3"/><rect class="k" x="1150.47" y="466.62" width="23.82" height="11.3"/><rect class="k" x="1150.47" y="485.92" width="23.82" height="11.3"/><rect class="k" x="1150.47" y="505.23" width="23.82" height="11.3"/><rect class="k" x="1150.47" y="524.54" width="23.82" height="11.3"/><rect class="k" x="1150.47" y="543.84" width="23.82" height="3.16"/><polygon class="k" points="1193.78 433.78 1193.78 542.68 1183.37 542.68 1183.37 547 1175.62 547 1175.62 424.06 1181.23 427.06 1182.71 427.85 1193.78 433.78"/><polygon class="j" points="1210.51 397.77 1210.51 547 1208.41 547 1208.41 542.68 1183.37 542.68 1183.37 547 1181.23 547 1181.23 397.77 1210.51 397.77"/><rect class="k" x="1182.71" y="402.12" width="26.33" height="12.49"/><rect class="k" x="1182.71" y="423.47" width="26.33" height="12.49"/><rect class="k" x="1182.71" y="444.81" width="26.33" height="12.49"/><rect class="k" x="1182.71" y="466.16" width="26.33" height="12.49"/><rect class="k" x="1182.71" y="487.5" width="26.33" height="12.49"/><rect class="k" x="1182.71" y="508.84" width="26.33" height="12.49"/><polygon class="k" points="1230.58 408.51 1230.58 547 1210.51 547 1210.51 397.77 1222.72 404.3 1230.58 408.51"/><rect class="j" x="1142.83" y="522.26" width="40.54" height="24.74"/><rect class="k" x="1144.67" y="526.96" width="64.33" height="7.15"/><rect class="j" x="1183" y="541" width="26" height="6"/><rect class="k" x="1144.81" y="537.5" width="64.19" height="7.15"/></svg>