<svg xmlns="http://www.w3.org/2000/svg" xmlns:xlink="http://www.w3.org/1999/xlink" viewBox="0 0 1366 869"><defs><style>.a{fill:url(#a);}.b,.n{fill:none;}.b,.d,.e{stroke:#fff;stroke-miterlimit:10;}.b{stroke-dasharray:11;}.c{fill:url(#b);}.d,.m{fill:#fff;}.d,.e{stroke-width:2px;}.e{fill:url(#c);}.f{fill:#c64417;}.g{fill:#632013;}.h{fill:url(#d);}.i{fill:url(#e);}.j{fill:#f18335;}.k{fill:#3a1e17;}.l{fill:url(#f);}</style><linearGradient id="a" x1="683" y1="768" x2="683" gradientUnits="userSpaceOnUse"><stop offset="0" stop-color="#3fa9f5"/><stop offset="0.32" stop-color="#2a71f8"/><stop offset="1" stop-color="blue"/></linearGradient><linearGradient id="b" x1="1030.62" y1="190" x2="1030.62" y2="146.45" gradientUnits="userSpaceOnUse"><stop offset="0" stop-color="#17aebf"/><stop offset="0.12" stop-color="#16a3c3"/><stop offset="0.32" stop-color="#1286ce"/><stop offset="0.58" stop-color="#0c57df"/><stop offset="0.9" stop-color="#0317f7"/><stop offset="1" stop-color="blue"/></linearGradient><linearGradient id="c" x1="778.41" y1="200.88" x2="895.4" y2="200.88" gradientTransform="matrix(0.99, 0.16, -0.07, 1, -22.91, -26.46)" gradientUnits="userSpaceOnUse"><stop offset="0.4" stop-color="#3fa9f5"/><stop offset="0.57" stop-color="#3ca0f6"/><stop offset="0.69" stop-color="#2a71f9"/><stop offset="1" stop-color="blue"/></linearGradient><linearGradient id="d" x1="1032.86" y1="432.76" x2="1032.86" y2="376.76" xlink:href="#b"/><linearGradient id="e" x1="1226.65" y1="269.2" x2="1226.65" y2="230" xlink:href="#b"/><linearGradient id="f" y1="647.78" x2="1366" y2="647.78" gradientUnits="userSpaceOnUse"><stop offset="0.07" stop-color="#cce0f4"/><stop offset="0.14" stop-color="#c7dcf4"/><stop offset="0.22" stop-color="#bacff5"/><stop offset="0.3" stop-color="#a3bbf6"/><stop offset="0.39" stop-color="#839ef7"/><stop offset="0.47" stop-color="#597af9"/><stop offset="0.56" stop-color="#284dfb"/><stop offset="0.62" stop-color="#052efd"/></linearGradient></defs><title>back2-1</title><rect class="a" width="1366" height="768"/><path class="b" d="M823.88,316.64c13,4.18,25.73,11.34,39.07,13.73C875,332.76,887.08,328,898.51,322c5.09-3.58,10.81-7.16,15.88-10.75,31.77-23.88,55.9-64.48,82.58-105.09,5.08-7.16,9.53-13.13,14.61-19.1,1.9-3.59,3.81-6,5.72-9.56,26-31,52.08-54.93,83.21-45.38,32.39,10.75,55.89,47.77,83.2,80,5.62,6,10.73,12.07,16.29,16.6"/><path class="c" d="M1107.22,190a19.18,19.18,0,0,0,.78-5.44,19.44,19.44,0,0,0-36.38-9.54,29.54,29.54,0,0,0-43.34-13.78,30.33,30.33,0,0,0-56,10.88h-.36c-10.31,0-18.66,5.57-18.66,12.45a9.16,9.16,0,0,0,1.87,5.44Z"/><polyline class="d" points="774.62 330.34 773.4 330.11 728 321.47 819.99 264 809.32 299.29"/><line class="d" x1="819.16" y1="265.47" x2="778.67" y2="307.95"/><polygon class="e" points="729.76 321.76 830.85 341.11 849 288.08 729.76 321.76"/><path class="d" d="M732.05,321.91,841.31,311.5Z"/><rect class="f" x="976.38" y="312.55" width="29.3" height="341.56"/><rect class="f" x="1323.19" y="297.54" width="40.47" height="407.46"/><rect class="f" x="1331.41" y="250.03" width="24.02" height="144.64"/><polygon class="f" points="1343.42 221.83 1332.22 250.03 1354.62 250.03 1343.42 221.83"/><rect class="g" x="945" y="522.26" width="39.57" height="144.71"/><polygon class="g" points="1366 277.06 1366 689.6 1351.61 689.6 1351.61 299.95 1356.08 299.95 1356.08 277.06 1366 277.06"/><polygon class="f" points="1325.23 378.61 1325.23 355.72 1294.61 355.72 1294.61 378.61 1290.14 378.61 1290.14 523.32 1329.71 523.32 1329.71 378.61 1325.23 378.61"/><polygon class="g" points="1294.5 336.8 1294.5 317.96 1269.31 317.96 1269.31 336.8 1265.63 336.8 1265.63 657.33 1298.18 657.33 1298.18 336.8 1294.5 336.8"/><rect class="f" x="1201.65" y="346.95" width="21.07" height="100.36"/><polygon class="f" points="1193.01 257.71 1193.01 222.16 1186.8 222.16 1186.8 186.67 1172.52 186.67 1172.52 222.16 1166.31 222.16 1166.31 257.71 1161.38 257.71 1161.38 488.81 1197.94 488.81 1197.94 257.71 1193.01 257.71"/><path class="h" d="M1164,432.76a19.31,19.31,0,0,0,1.33-7c0-13.81-14.91-25-33.29-25-12.45,0-23.3,5.13-29,12.73-7.51-13.91-25.67-23.73-46.9-23.73a62.93,62.93,0,0,0-27.31,6c-9.07-11.39-25.64-19-44.6-19-26,0-47.48,14.31-51.32,33h-.61c-17.65,0-32,7.16-32,16a10.12,10.12,0,0,0,3.21,7Z"/><polygon class="f" points="1099.39 300.68 1099.39 212.78 1071.89 212.78 1071.89 464.05 1085.64 464.05 1085.64 514.21 1113.14 514.21 1113.14 338.42 1099.39 300.68"/><path class="i" d="M1295.6,269.2a17.5,17.5,0,0,0-32-13.49,26.6,26.6,0,0,0-39-12.4,27.3,27.3,0,0,0-50.42,9.8h-.32c-9.28,0-16.8,5-16.8,11.2a8.26,8.26,0,0,0,1.69,4.9Z"/><path class="f" d="M1273.24,521.33H1249.1V194.26l16.59,29c4.73,8.28,7.55,21.86,7.55,36.35Z"/><polygon class="g" points="1153.27 365.41 1153.27 334.44 1142.42 327.92 1124.29 327.92 1124.29 361.32 1120.52 361.32 1120.52 543.98 1121.51 543.98 1144.64 543.98 1145.64 543.98 1159.26 543.98 1159.26 368.61 1153.27 365.41"/><polygon class="g" points="1021.86 438.3 1021.86 407.34 1011 400.81 992.87 400.81 992.87 434.21 989.1 434.21 989.1 616.88 990.1 616.88 1013.23 616.88 1014.23 616.88 1027.85 616.88 1027.85 441.5 1021.86 438.3"/><polygon class="g" points="1201.51 320.15 1201.51 304.28 1175.45 304.28 1175.45 320.15 1171.75 320.15 1171.75 476.29 1205.21 476.29 1205.21 320.15 1201.51 320.15"/><polygon class="g" points="1121.55 499.73 1109.32 499.73 1109.32 468.72 1105.61 468.72 1105.61 452.85 1095.11 452.85 1095.11 400.68 1091.41 400.68 1091.41 384.81 1065.35 384.81 1065.35 400.68 1061.65 400.68 1061.65 516.84 1061.65 556.83 1061.65 672.99 1095.11 672.99 1095.11 624.86 1109.32 624.86 1109.32 602.89 1121.55 602.89 1121.55 499.73"/><polygon class="g" points="1257.46 448.98 1257.46 430.27 1253.44 430.27 1253.44 370.55 1251.45 370.55 1251.45 360.48 1237.43 360.48 1237.43 370.55 1235.43 370.55 1235.43 430.27 1231.41 430.27 1231.41 448.98 1227.71 448.98 1227.71 667.57 1261.17 667.57 1261.17 448.98 1257.46 448.98"/><rect class="j" x="1310.63" y="334.29" width="17.48" height="38.37"/><polygon class="k" points="1340.92 342.69 1328.11 334.29 1328.11 372.66 1340.92 378.38 1340.92 342.69"/><rect class="j" x="1306.69" y="366.13" width="23.61" height="51.81"/><rect class="k" x="1308.01" y="397.76" width="20.98" height="8.03"/><rect class="k" x="1308.01" y="382.25" width="20.98" height="8.03"/><rect class="k" x="1308.01" y="369.25" width="20.98" height="8.03"/><polygon class="k" points="1345.1 375.1 1330.3 366.13 1330.3 417.95 1345.1 423.3 1345.1 375.1"/><rect class="j" x="1301.9" y="410.05" width="31.06" height="252.92"/><rect class="k" x="1323.19" y="417.95" width="3.88" height="245.02"/><rect class="k" x="1314.61" y="417.95" width="3.88" height="245.02"/><rect class="k" x="1306.04" y="417.95" width="3.88" height="245.02"/><polygon class="k" points="1348.89 418.37 1332.96 410.06 1332.96 676.4 1348.89 676.4 1348.89 418.37"/><rect class="j" x="1017.22" y="352.11" width="26.72" height="119.94"/><polygon class="k" points="1059.94 472.05 1043.94 472.05 1043.94 352.11 1059.94 361.72 1059.94 472.05"/><rect class="j" x="1011.66" y="401.33" width="37.03" height="269.2"/><rect class="k" x="1013.14" y="405.69" width="34.09" height="12.49"/><rect class="k" x="1013.14" y="427.03" width="34.09" height="12.49"/><rect class="k" x="1013.14" y="448.38" width="34.09" height="12.49"/><rect class="k" x="1013.14" y="469.72" width="34.09" height="12.49"/><rect class="k" x="1013.14" y="491.07" width="34.09" height="12.49"/><rect class="k" x="1013.14" y="512.41" width="34.09" height="12.49"/><rect class="k" x="1013.14" y="533.75" width="34.09" height="12.49"/><rect class="k" x="1013.14" y="555.1" width="34.09" height="12.49"/><rect class="k" x="1013.14" y="576.44" width="34.09" height="12.49"/><rect class="k" x="1013.14" y="597.79" width="34.09" height="12.49"/><rect class="k" x="1013.14" y="619.13" width="34.09" height="12.49"/><rect class="k" x="1013.14" y="640.48" width="34.09" height="12.49"/><rect class="k" x="1013.14" y="661.82" width="34.09" height="8.71"/><polygon class="k" points="1068.77 670.53 1048.7 670.53 1048.7 401.33 1068.77 412.08 1068.77 670.53"/><rect class="k" x="1017.89" y="354.94" width="24.57" height="6.97"/><rect class="k" x="1017.89" y="366.27" width="24.57" height="6.97"/><rect class="k" x="1017.89" y="377.59" width="24.57" height="6.97"/><rect class="k" x="1017.89" y="388.92" width="24.57" height="6.97"/><rect class="j" x="1149.14" y="424.06" width="26.48" height="243.5"/><rect class="k" x="1150.47" y="428" width="23.82" height="11.3"/><rect class="k" x="1150.47" y="447.31" width="23.82" height="11.3"/><rect class="k" x="1150.47" y="466.62" width="23.82" height="11.3"/><rect class="k" x="1150.47" y="485.92" width="23.82" height="11.3"/><rect class="k" x="1150.47" y="505.23" width="23.82" height="11.3"/><rect class="k" x="1150.47" y="524.54" width="23.82" height="11.3"/><rect class="k" x="1150.47" y="543.84" width="23.82" height="11.3"/><rect class="k" x="1150.47" y="563.15" width="23.82" height="11.3"/><rect class="k" x="1150.47" y="582.46" width="23.82" height="11.3"/><rect class="k" x="1150.47" y="601.76" width="23.82" height="11.3"/><rect class="k" x="1150.47" y="621.07" width="23.82" height="11.3"/><rect class="k" x="1150.47" y="640.38" width="23.82" height="11.3"/><rect class="k" x="1150.47" y="659.69" width="23.82" height="7.88"/><polygon class="k" points="1193.78 667.57 1175.62 667.57 1175.62 424.06 1193.78 433.78 1193.78 667.57"/><rect class="j" x="1181.23" y="397.77" width="29.27" height="269.2"/><rect class="k" x="1182.71" y="402.12" width="26.33" height="12.49"/><rect class="k" x="1182.71" y="423.47" width="26.33" height="12.49"/><rect class="k" x="1182.71" y="444.81" width="26.33" height="12.49"/><rect class="k" x="1182.71" y="466.16" width="26.33" height="12.49"/><rect class="k" x="1182.71" y="487.5" width="26.33" height="12.49"/><rect class="k" x="1182.71" y="508.84" width="26.33" height="12.49"/><rect class="k" x="1182.71" y="530.19" width="26.33" height="12.49"/><rect class="k" x="1182.71" y="551.53" width="26.33" height="12.49"/><rect class="k" x="1182.71" y="572.88" width="26.33" height="12.49"/><rect class="k" x="1182.71" y="594.22" width="26.33" height="12.49"/><rect class="k" x="1182.71" y="615.57" width="26.33" height="12.49"/><rect class="k" x="1182.71" y="636.91" width="26.33" height="12.49"/><rect class="k" x="1182.71" y="658.26" width="26.33" height="8.71"/><polygon class="k" points="1230.58 666.97 1210.51 666.97 1210.51 397.77 1230.58 408.51 1230.58 666.97"/><rect class="j" x="1142.83" y="522.26" width="40.54" height="148.22"/><rect class="k" x="1144.67" y="663.33" width="36.87" height="7.15"/><rect class="k" x="1144.67" y="644.14" width="36.87" height="7.15"/><rect class="k" x="1144.67" y="624.94" width="36.87" height="7.15"/><rect class="k" x="1144.67" y="605.75" width="36.87" height="7.15"/><rect class="k" x="1144.67" y="586.55" width="36.87" height="7.15"/><rect class="k" x="1144.67" y="567.35" width="36.87" height="7.15"/><rect class="k" x="1144.67" y="548.16" width="36.87" height="7.15"/><rect class="k" x="1144.67" y="528.96" width="36.87" height="7.15"/><polygon class="k" points="1208.41 670.49 1183.37 670.49 1183.37 522.26 1208.41 535.66 1208.41 670.49"/><rect class="j" x="1081.2" y="572.94" width="32.5" height="118.85"/><rect class="k" x="1082.67" y="686.05" width="29.56" height="5.74"/><rect class="k" x="1082.67" y="670.66" width="29.56" height="5.74"/><rect class="k" x="1082.67" y="655.27" width="29.56" height="5.74"/><rect class="k" x="1082.67" y="639.88" width="29.56" height="5.74"/><rect class="k" x="1082.67" y="624.49" width="29.56" height="5.74"/><rect class="k" x="1082.67" y="609.1" width="29.56" height="5.74"/><rect class="k" x="1082.67" y="593.71" width="29.56" height="5.74"/><rect class="k" x="1082.67" y="578.32" width="29.56" height="5.74"/><polygon class="k" points="1133.77 691.79 1113.7 691.79 1113.7 572.94 1133.77 583.69 1133.77 691.79"/><rect class="j" x="1275.53" y="551.4" width="32.5" height="118.85"/><rect class="k" x="1277" y="664.51" width="29.56" height="5.74"/><rect class="k" x="1277" y="649.12" width="29.56" height="5.74"/><rect class="k" x="1277" y="633.72" width="29.56" height="5.74"/><rect class="k" x="1277" y="618.33" width="29.56" height="5.74"/><rect class="k" x="1277" y="602.94" width="29.56" height="5.74"/><rect class="k" x="1277" y="587.55" width="29.56" height="5.74"/><rect class="k" x="1277" y="572.16" width="29.56" height="5.74"/><rect class="k" x="1277" y="556.77" width="29.56" height="5.74"/><polygon class="k" points="1328.11 670.24 1308.04 670.24 1308.04 551.4 1328.11 562.14 1328.11 670.24"/><rect class="j" x="978.76" y="547.99" width="45.73" height="118.85"/><rect class="k" x="980.23" y="661.1" width="42.79" height="5.74"/><rect class="k" x="980.23" y="645.71" width="42.79" height="5.74"/><rect class="k" x="980.23" y="630.32" width="42.79" height="5.74"/><rect class="k" x="980.23" y="614.93" width="42.79" height="5.74"/><rect class="k" x="980.23" y="599.54" width="42.79" height="5.74"/><rect class="k" x="980.23" y="584.14" width="42.79" height="5.74"/><rect class="k" x="980.23" y="568.75" width="42.79" height="5.74"/><rect class="k" x="980.23" y="553.36" width="42.79" height="5.74"/><polygon class="k" points="1044.57 666.84 1024.49 666.84 1024.49 547.99 1044.57 558.73 1044.57 666.84"/><rect class="j" x="1246.17" y="481.65" width="29.27" height="193.33"/><rect class="k" x="1269.54" y="486.8" width="3.98" height="188.18"/><rect class="k" x="1262.19" y="486.8" width="3.98" height="188.18"/><rect class="k" x="1254.84" y="486.8" width="3.98" height="188.18"/><rect class="k" x="1247.5" y="486.8" width="3.98" height="188.18"/><polygon class="k" points="1295.52 674.98 1275.44 674.98 1275.44 481.65 1295.52 492.39 1295.52 674.98"/><rect class="j" x="1102.88" y="547.29" width="45.73" height="118.85"/><rect class="k" x="1055.16" y="609.68" width="110.59" height="2.28" transform="translate(1721.28 -499.64) rotate(90)"/><rect class="k" x="1061.28" y="609.68" width="110.59" height="2.28" transform="translate(1727.39 -505.75) rotate(90)"/><rect class="k" x="1067.39" y="609.68" width="110.59" height="2.28" transform="translate(1733.5 -511.87) rotate(90)"/><rect class="k" x="1073.51" y="609.68" width="110.59" height="2.28" transform="translate(1739.62 -517.98) rotate(90)"/><rect class="k" x="1079.62" y="609.68" width="110.59" height="2.28" transform="translate(1745.73 -524.09) rotate(90)"/><rect class="k" x="1085.73" y="609.68" width="110.59" height="2.28" transform="translate(1751.85 -530.21) rotate(90)"/><polygon class="k" points="1168.68 666.13 1148.61 666.13 1148.61 547.29 1168.68 558.03 1168.68 666.13"/><path class="l" d="M1366,428.23v1.53l-1,.39c-173.43,68-492.12,246.47-789.51,257.35-202.85,7.43-334.15,52.84-438.44,104.8-50.59,24.36-94.7,50.49-137,75V767.65c138.14-69.24,284.68-165.78,587.19-144.56C871.26,643,1191,485.41,1365,428.56Z"/><path class="m" d="M1365,430.15V869H0v-.52c42.74-24.56,86.75-51.13,137.05-76.18,104.29-52,235.59-97.37,438.44-104.8C872.88,676.62,1191.57,498.16,1365,430.15Z"/><path class="n" d="M1366,428.23v1.53l-1,.39v-1.59Z"/></svg>