<svg xmlns="http://www.w3.org/2000/svg" xmlns:xlink="http://www.w3.org/1999/xlink" viewBox="0 0 1366 774.44"><defs><style>.a{fill:url(#a);}.b{fill:url(#b);}.c{fill:none;}.d{fill:url(#c);}.e{fill:url(#d);}.f{fill:url(#e);}.g{fill:url(#f);}.h{fill:url(#g);}.i{fill:url(#h);}.j{fill:url(#i);}.k{fill:url(#j);}.l{fill:#fff;}</style><linearGradient id="a" x1="55.28" y1="808.91" x2="1189.18" y2="40.75" gradientUnits="userSpaceOnUse"><stop offset="0" stop-color="#3fa9f5"/><stop offset="0.32" stop-color="#2a71f8"/><stop offset="1" stop-color="blue"/></linearGradient><linearGradient id="b" x1="683" y1="768" x2="683" y2="0" xlink:href="#a"/><linearGradient id="c" x1="96.65" y1="765" x2="96.65" y2="709" gradientUnits="userSpaceOnUse"><stop offset="0.06" stop-color="#fff"/><stop offset="0.07" stop-color="#ddf3f6"/><stop offset="0.08" stop-color="#b4e5ea"/><stop offset="0.1" stop-color="#8ed8e0"/><stop offset="0.11" stop-color="#6eccd7"/><stop offset="0.13" stop-color="#52c3cf"/><stop offset="0.15" stop-color="#3cbbc9"/><stop offset="0.17" stop-color="#2bb5c5"/><stop offset="0.2" stop-color="#20b1c1"/><stop offset="0.23" stop-color="#19afc0"/><stop offset="0.34" stop-color="#17aebf"/><stop offset="0.41" stop-color="#16a7c2"/><stop offset="0.52" stop-color="#1393c9"/><stop offset="0.66" stop-color="#0f72d5"/><stop offset="0.81" stop-color="#0945e6"/><stop offset="0.97" stop-color="#020cfb"/><stop offset="1" stop-color="blue"/></linearGradient><linearGradient id="d" x1="252.59" y1="761" x2="252.59" y2="705" xlink:href="#c"/><linearGradient id="e" x1="376.59" y1="760" x2="376.59" y2="704" xlink:href="#c"/><linearGradient id="f" x1="735.59" y1="749" x2="735.59" y2="693" xlink:href="#c"/><linearGradient id="g" x1="1038.59" y1="751" x2="1038.59" y2="695" xlink:href="#c"/><linearGradient id="h" x1="560.59" y1="756" x2="560.59" y2="700" xlink:href="#c"/><linearGradient id="i" x1="888.59" y1="755" x2="888.59" y2="699" xlink:href="#c"/><linearGradient id="j" x1="1240.05" y1="753" x2="1240.05" y2="697" xlink:href="#c"/></defs><title>back-services</title><path class="a" d="M1304.55,193.41c-76.55-40.41-197.92-41.67-268-50.4C884,124,834.46,24.25,816.05,0H0V768H1365V268.1C1355.25,246.39,1337.38,210.74,1304.55,193.41Z"/><rect class="b" width="1366" height="768"/><line class="c" x1="519.06" y1="768" x2="518.6" y2="768"/><path class="d" d="M193.3,758a24.88,24.88,0,0,1-1,7H0V747.65C4.4,744.19,11,742,18.3,742h.46a39,39,0,0,1,72-14,38,38,0,0,1,55.73,17.71A25,25,0,0,1,193.3,758Z"/><path class="e" d="M351.09,761a25,25,0,0,0-45.78-19.27A38,38,0,0,0,249.58,724a39,39,0,0,0-72,14h-.46c-13.25,0-24,7.16-24,16a11.76,11.76,0,0,0,2.42,7Z"/><path class="f" d="M475.09,760a25,25,0,0,0-45.78-19.27A38,38,0,0,0,373.58,723a39,39,0,0,0-72,14h-.46c-13.25,0-24,7.16-24,16a11.76,11.76,0,0,0,2.42,7Z"/><path class="g" d="M834.09,749a25,25,0,0,0-45.78-19.27A38,38,0,0,0,732.58,712a39,39,0,0,0-72,14h-.46c-13.25,0-24,7.16-24,16a11.76,11.76,0,0,0,2.42,7Z"/><path class="h" d="M1137.09,751a25,25,0,0,0-45.78-19.27A38,38,0,0,0,1035.58,714a39,39,0,0,0-72,14h-.46c-13.25,0-24,7.16-24,16a11.76,11.76,0,0,0,2.42,7Z"/><path class="i" d="M691.76,756a19.31,19.31,0,0,0,1.33-7c0-13.81-14.9-25-33.29-25-12.45,0-23.29,5.13-29,12.73C623.28,722.82,605.12,713,583.9,713a62.94,62.94,0,0,0-27.32,6c-9.06-11.39-25.64-19-44.59-19-26,0-47.49,14.31-51.33,33h-.61c-17.65,0-32,7.16-32,16a10.07,10.07,0,0,0,3.22,7Z"/><path class="j" d="M1019.76,755a19.31,19.31,0,0,0,1.33-7c0-13.81-14.9-25-33.29-25-12.45,0-23.29,5.13-29,12.73C951.28,721.82,933.12,712,911.9,712a62.94,62.94,0,0,0-27.32,6c-9.06-11.39-25.64-19-44.59-19-26,0-47.49,14.31-51.33,33h-.61c-17.65,0-32,7.16-32,16a10.07,10.07,0,0,0,3.22,7Z"/><path class="k" d="M1366,726.13V753H1117.31a11.67,11.67,0,0,1-2.65-4,8.16,8.16,0,0,1-.57-3c0-8.84,14.31-16,32-16h.61c3.84-18.7,25.36-33,51.33-33,19,0,35.53,7.63,44.59,19a62.94,62.94,0,0,1,27.32-6c21.22,0,39.38,9.82,46.9,23.73,5.71-7.6,16.55-12.73,29-12.73A40.68,40.68,0,0,1,1366,726.13Z"/><rect class="l" y="749" width="1366" height="25.44"/></svg>