<svg xmlns="http://www.w3.org/2000/svg" xmlns:xlink="http://www.w3.org/1999/xlink" viewBox="0 0 2500.33 1243.46"><defs><style>.a{fill:url(#a);}.b,.e{fill:none;}.b,.d,.e,.f{stroke:#fff;stroke-miterlimit:10;}.b{stroke-dasharray:11;}.c{fill:url(#b);}.d,.n{fill:#fff;}.d,.e,.f{stroke-width:2px;}.f{fill:url(#c);}.g{fill:#c64417;}.h{fill:#632013;}.i{fill:url(#d);}.j{fill:url(#e);}.k{fill:#f18335;}.l{fill:#3a1e17;}.m{fill:url(#f);}</style><linearGradient id="a" x1="1251.28" y1="1243.46" x2="1251.28" gradientUnits="userSpaceOnUse"><stop offset="0" stop-color="#3fa9f5"/><stop offset="0.32" stop-color="#2a71f8"/><stop offset="1" stop-color="blue"/></linearGradient><linearGradient id="b" x1="1887" y1="307.63" x2="1887" y2="237.12" gradientUnits="userSpaceOnUse"><stop offset="0" stop-color="#17aebf"/><stop offset="0.12" stop-color="#16a3c3"/><stop offset="0.32" stop-color="#1286ce"/><stop offset="0.58" stop-color="#0c57df"/><stop offset="0.9" stop-color="#0317f7"/><stop offset="1" stop-color="blue"/></linearGradient><linearGradient id="c" x1="1189.47" y1="122.38" x2="1403.92" y2="122.38" gradientTransform="matrix(0.99, 0.16, -0.07, 1, 173.95, 167.8)" gradientUnits="userSpaceOnUse"><stop offset="0.4" stop-color="#3fa9f5"/><stop offset="0.57" stop-color="#3ca0f6"/><stop offset="0.69" stop-color="#2a71f9"/><stop offset="1" stop-color="blue"/></linearGradient><linearGradient id="d" x1="1891.09" y1="700.67" x2="1891.09" y2="610" xlink:href="#b"/><linearGradient id="e" x1="2245.49" y1="435.86" x2="2245.49" y2="372.39" xlink:href="#b"/><linearGradient id="f" x1="1554.05" y1="818.2" x2="358.18" y2="2054.84" gradientUnits="userSpaceOnUse"><stop offset="0" stop-color="#052efd"/><stop offset="0.08" stop-color="#2e52fb"/><stop offset="0.17" stop-color="#5778f9"/><stop offset="0.26" stop-color="#7b98f8"/><stop offset="0.36" stop-color="#99b2f6"/><stop offset="0.47" stop-color="#afc6f5"/><stop offset="0.58" stop-color="#c0d5f5"/><stop offset="0.71" stop-color="#c9ddf4"/><stop offset="0.89" stop-color="#cce0f4"/></linearGradient></defs><title>back-wd</title><rect class="a" x="2.24" width="2498.08" height="1243.46"/><path class="b" d="M1508.93,512.66c23.81,6.77,47,18.37,71.43,22.24,22.07,3.87,44.14-3.87,65.05-13.54,9.3-5.8,19.75-11.6,29-17.4,58.08-38.67,102.22-104.41,151-170.15,9.29-11.6,17.42-21.27,26.71-30.94,3.49-5.8,7-9.66,10.46-15.46,47.62-50.28,95.24-89,152.17-73.48C2074,231.33,2117,291.27,2167,343.48c10.27,9.76,19.62,19.53,29.78,26.87"/><path class="c" d="M2027.08,307.63a28.2,28.2,0,0,0,1.43-8.82c0-17.38-15.92-31.48-35.56-31.48-13.29,0-24.87,6.47-31,16-8-17.51-27.42-29.88-50.09-29.88a58.92,58.92,0,0,0-29.17,7.58c-9.68-14.34-27.38-23.94-47.63-23.94-27.73,0-50.71,18-54.81,41.56h-.65c-18.85,0-34.13,9-34.13,20.14a13.86,13.86,0,0,0,3.43,8.82Z"/><polyline class="d" points="1418.84 534.85 1416.6 534.47 1333.58 520.49 1501.8 427.44 1482.3 484.57"/><line class="e" x1="1500.3" y1="429.83" x2="1426.24" y2="498.59"/><polygon class="f" points="1336.8 520.96 1521.66 552.28 1554.86 466.42 1336.8 520.96"/><path class="d" d="M1341,521.2l199.82-16.86Z"/><rect class="g" x="1787.81" y="506.05" width="53.58" height="553.01"/><rect class="g" x="2422.03" y="481.74" width="74" height="659.72"/><rect class="g" x="2437.06" y="404.82" width="43.93" height="234.19"/><polygon class="g" points="2459.03 359.16 2438.54 404.81 2479.52 404.81 2459.03 359.16"/><rect class="h" x="1730.42" y="845.59" width="72.36" height="234.29"/><polygon class="h" points="2500.32 448.58 2500.32 1116.52 2474.01 1116.52 2474.01 485.64 2482.18 485.64 2482.18 448.58 2500.32 448.58"/><polygon class="g" points="2425.78 613.01 2425.78 575.94 2369.78 575.94 2369.78 613.01 2361.6 613.01 2361.6 847.3 2433.95 847.3 2433.95 613.01 2425.78 613.01"/><polygon class="h" points="2369.57 545.3 2369.57 514.81 2323.51 514.81 2323.51 545.3 2316.78 545.3 2316.78 1064.27 2376.3 1064.27 2376.3 545.3 2369.57 545.3"/><rect class="g" x="2199.77" y="561.75" width="38.54" height="162.49"/><polygon class="g" points="2183.97 417.26 2183.97 359.7 2172.6 359.7 2172.6 302.24 2146.5 302.24 2146.5 359.7 2135.13 359.7 2135.13 417.26 2126.12 417.26 2126.12 791.43 2192.99 791.43 2192.99 417.26 2183.97 417.26"/><path class="i" d="M2131,700.67a28,28,0,0,0,2.44-11.33c0-22.36-27.26-40.48-60.88-40.48-22.77,0-42.6,8.31-53,20.61-13.75-22.52-47-38.42-85.77-38.42a128,128,0,0,0-50,9.74c-16.58-18.44-46.9-30.79-81.56-30.79-47.49,0-86.84,23.18-93.86,53.45l-1.12,0c-32.27,0-58.44,11.6-58.44,25.91,0,4.06,2.12,7.91,5.88,11.33Z"/><polygon class="g" points="2012.76 486.83 2012.76 344.51 1962.46 344.51 1962.46 751.33 1987.61 751.33 1987.61 832.55 2037.91 832.55 2037.91 547.92 2012.76 486.83"/><path class="j" d="M2371.58,435.86a25.3,25.3,0,0,0,1.28-7.94c0-15.65-14.33-28.33-32-28.33-12,0-22.39,5.82-27.89,14.43-7.22-15.77-24.68-26.9-45.08-26.9a53,53,0,0,0-26.25,6.82c-8.72-12.91-24.66-21.55-42.88-21.55-25,0-45.64,16.22-49.33,37.41h-.59c-17,0-30.73,8.12-30.73,18.13a12.43,12.43,0,0,0,3.1,7.94Z"/><path class="g" d="M2330.69,844.08h-44.15V314.52l30.35,47c8.64,13.4,13.8,35.39,13.8,58.86Z"/><polygon class="h" points="2111.3 591.63 2111.3 541.5 2091.45 530.94 2058.29 530.94 2058.29 585.01 2051.39 585.01 2051.39 880.75 2053.22 880.75 2095.52 880.75 2097.34 880.75 2122.25 880.75 2122.25 596.82 2111.3 591.63"/><polygon class="h" points="1870.98 709.64 1870.98 659.51 1851.12 648.95 1817.97 648.95 1817.97 703.03 1811.07 703.03 1811.07 998.77 1812.89 998.77 1855.19 998.77 1857.02 998.77 1881.93 998.77 1881.93 714.83 1870.98 709.64"/><polygon class="h" points="2199.51 518.34 2199.51 492.65 2151.86 492.65 2151.86 518.34 2145.08 518.34 2145.08 771.16 2206.28 771.16 2206.28 518.34 2199.51 518.34"/><polygon class="h" points="2053.28 809.11 2030.92 809.11 2030.92 758.89 2024.14 758.89 2024.14 733.2 2004.94 733.2 2004.94 648.74 1998.16 648.74 1998.16 623.05 1950.52 623.05 1950.52 648.74 1943.74 648.74 1943.74 836.81 1943.74 901.55 1943.74 1089.63 2004.94 1089.63 2004.94 1011.71 2030.92 1011.71 2030.92 976.13 2053.28 976.13 2053.28 809.11"/><polygon class="h" points="2301.84 726.94 2301.84 696.64 2294.48 696.64 2294.48 599.95 2290.84 599.95 2290.84 583.64 2265.2 583.64 2265.2 599.95 2261.55 599.95 2261.55 696.64 2254.19 696.64 2254.19 726.94 2247.42 726.94 2247.42 1080.84 2308.61 1080.84 2308.61 726.94 2301.84 726.94"/><rect class="k" x="2399.07" y="541.25" width="31.97" height="62.12"/><polygon class="l" points="2454.47 554.84 2431.04 541.25 2431.04 603.37 2454.47 612.63 2454.47 554.84"/><rect class="k" x="2391.86" y="592.8" width="43.17" height="83.89"/><rect class="l" x="2394.27" y="644.01" width="38.37" height="13"/><rect class="l" x="2394.27" y="618.9" width="38.37" height="13"/><rect class="l" x="2394.27" y="597.84" width="38.37" height="13"/><polygon class="l" points="2462.11 607.32 2435.04 592.8 2435.04 676.69 2462.11 685.36 2462.11 607.32"/><rect class="k" x="2383.1" y="663.91" width="56.8" height="409.49"/><rect class="l" x="2422.03" y="676.69" width="7.1" height="396.71"/><rect class="l" x="2406.35" y="676.69" width="7.1" height="396.71"/><rect class="l" x="2390.68" y="676.69" width="7.1" height="396.71"/><polygon class="l" points="2469.03 677.37 2439.9 663.91 2439.9 1095.15 2469.03 1095.15 2469.03 677.37"/><rect class="k" x="1862.5" y="570.09" width="48.86" height="194.19"/><polygon class="l" points="1940.62 764.28 1911.36 764.28 1911.36 570.09 1940.62 585.65 1940.62 764.28"/><rect class="k" x="1852.33" y="649.79" width="67.72" height="435.86"/><rect class="l" x="1855.02" y="656.84" width="62.34" height="20.22"/><rect class="l" x="1855.02" y="691.4" width="62.34" height="20.22"/><rect class="l" x="1855.02" y="725.96" width="62.34" height="20.22"/><rect class="l" x="1855.02" y="760.52" width="62.34" height="20.22"/><rect class="l" x="1855.02" y="795.08" width="62.34" height="20.22"/><rect class="l" x="1855.02" y="829.64" width="62.34" height="20.22"/><rect class="l" x="1855.02" y="864.19" width="62.34" height="20.22"/><rect class="l" x="1855.02" y="898.75" width="62.34" height="20.22"/><rect class="l" x="1855.02" y="933.31" width="62.34" height="20.22"/><rect class="l" x="1855.02" y="967.87" width="62.34" height="20.22"/><rect class="l" x="1855.02" y="1002.43" width="62.34" height="20.22"/><rect class="l" x="1855.02" y="1036.99" width="62.34" height="20.22"/><rect class="l" x="1855.02" y="1071.54" width="62.34" height="14.11"/><polygon class="l" points="1956.76 1085.65 1920.05 1085.65 1920.05 649.79 1956.76 667.19 1956.76 1085.65"/><rect class="l" x="1863.72" y="574.68" width="44.94" height="11.28"/><rect class="l" x="1863.72" y="593.02" width="44.94" height="11.28"/><rect class="l" x="1863.72" y="611.35" width="44.94" height="11.28"/><rect class="l" x="1863.72" y="629.69" width="44.94" height="11.28"/><rect class="k" x="2103.74" y="686.6" width="48.42" height="394.25"/><rect class="l" x="2106.18" y="692.97" width="43.56" height="18.29"/><rect class="l" x="2106.18" y="724.23" width="43.56" height="18.29"/><rect class="l" x="2106.18" y="755.49" width="43.56" height="18.29"/><rect class="l" x="2106.18" y="786.75" width="43.56" height="18.29"/><rect class="l" x="2106.18" y="818.01" width="43.56" height="18.29"/><rect class="l" x="2106.18" y="849.27" width="43.56" height="18.29"/><rect class="l" x="2106.18" y="880.53" width="43.56" height="18.29"/><rect class="l" x="2106.18" y="911.79" width="43.56" height="18.29"/><rect class="l" x="2106.18" y="943.05" width="43.56" height="18.29"/><rect class="l" x="2106.18" y="974.31" width="43.56" height="18.29"/><rect class="l" x="2106.18" y="1005.57" width="43.56" height="18.29"/><rect class="l" x="2106.18" y="1036.83" width="43.56" height="18.29"/><rect class="l" x="2106.18" y="1068.08" width="43.56" height="12.76"/><polygon class="l" points="2185.37 1080.84 2152.17 1080.84 2152.17 686.6 2185.37 702.33 2185.37 1080.84"/><rect class="k" x="2162.43" y="644.02" width="53.53" height="435.86"/><rect class="l" x="2165.12" y="651.07" width="48.15" height="20.22"/><rect class="l" x="2165.12" y="685.63" width="48.15" height="20.22"/><rect class="l" x="2165.12" y="720.19" width="48.15" height="20.22"/><rect class="l" x="2165.12" y="754.75" width="48.15" height="20.22"/><rect class="l" x="2165.12" y="789.3" width="48.15" height="20.22"/><rect class="l" x="2165.12" y="823.86" width="48.15" height="20.22"/><rect class="l" x="2165.12" y="858.42" width="48.15" height="20.22"/><rect class="l" x="2165.12" y="892.98" width="48.15" height="20.22"/><rect class="l" x="2165.12" y="927.54" width="48.15" height="20.22"/><rect class="l" x="2165.12" y="962.1" width="48.15" height="20.22"/><rect class="l" x="2165.12" y="996.65" width="48.15" height="20.22"/><rect class="l" x="2165.12" y="1031.21" width="48.15" height="20.22"/><rect class="l" x="2165.12" y="1065.77" width="48.15" height="14.11"/><polygon class="l" points="2252.68 1079.88 2215.97 1079.88 2215.97 644.02 2252.68 661.41 2252.68 1079.88"/><rect class="k" x="2092.21" y="845.59" width="74.13" height="239.99"/><rect class="l" x="2095.56" y="1073.99" width="67.42" height="11.58"/><rect class="l" x="2095.56" y="1042.91" width="67.42" height="11.58"/><rect class="l" x="2095.56" y="1011.83" width="67.42" height="11.58"/><rect class="l" x="2095.56" y="980.75" width="67.42" height="11.58"/><rect class="l" x="2095.56" y="949.67" width="67.42" height="11.58"/><rect class="l" x="2095.56" y="918.59" width="67.42" height="11.58"/><rect class="l" x="2095.56" y="887.51" width="67.42" height="11.58"/><rect class="l" x="2095.56" y="856.44" width="67.42" height="11.58"/><polygon class="l" points="2212.12 1085.57 2166.34 1085.57 2166.34 845.59 2212.12 867.28 2212.12 1085.57"/><rect class="k" x="1979.49" y="927.64" width="59.44" height="192.42"/><rect class="l" x="1982.18" y="1110.78" width="54.06" height="9.29"/><rect class="l" x="1982.18" y="1085.86" width="54.06" height="9.29"/><rect class="l" x="1982.18" y="1060.94" width="54.06" height="9.29"/><rect class="l" x="1982.18" y="1036.02" width="54.06" height="9.29"/><rect class="l" x="1982.18" y="1011.1" width="54.06" height="9.29"/><rect class="l" x="1982.18" y="986.18" width="54.06" height="9.29"/><rect class="l" x="1982.18" y="961.26" width="54.06" height="9.29"/><rect class="l" x="1982.18" y="936.34" width="54.06" height="9.29"/><polygon class="l" points="2075.64 1120.07 2038.93 1120.07 2038.93 927.64 2075.64 945.04 2075.64 1120.07"/><rect class="k" x="2334.89" y="892.76" width="59.44" height="192.42"/><rect class="l" x="2337.57" y="1075.89" width="54.06" height="9.29"/><rect class="l" x="2337.57" y="1050.97" width="54.06" height="9.29"/><rect class="l" x="2337.57" y="1026.05" width="54.06" height="9.29"/><rect class="l" x="2337.57" y="1001.13" width="54.06" height="9.29"/><rect class="l" x="2337.57" y="976.21" width="54.06" height="9.29"/><rect class="l" x="2337.57" y="951.29" width="54.06" height="9.29"/><rect class="l" x="2337.57" y="926.37" width="54.06" height="9.29"/><rect class="l" x="2337.57" y="901.45" width="54.06" height="9.29"/><polygon class="l" points="2431.03 1085.18 2394.32 1085.18 2394.32 892.76 2431.03 910.15 2431.03 1085.18"/><rect class="k" x="1792.16" y="887.24" width="83.63" height="192.42"/><rect class="l" x="1794.85" y="1070.38" width="78.25" height="9.29"/><rect class="l" x="1794.85" y="1045.46" width="78.25" height="9.29"/><rect class="l" x="1794.85" y="1020.54" width="78.25" height="9.29"/><rect class="l" x="1794.85" y="995.62" width="78.25" height="9.29"/><rect class="l" x="1794.85" y="970.7" width="78.25" height="9.29"/><rect class="l" x="1794.85" y="945.78" width="78.25" height="9.29"/><rect class="l" x="1794.85" y="920.86" width="78.25" height="9.29"/><rect class="l" x="1794.85" y="895.94" width="78.25" height="9.29"/><polygon class="l" points="1912.5 1079.66 1875.79 1079.66 1875.79 887.24 1912.5 904.64 1912.5 1079.66"/><rect class="k" x="2281.19" y="779.83" width="53.53" height="313.02"/><rect class="l" x="2323.92" y="788.17" width="7.27" height="304.68"/><rect class="l" x="2310.48" y="788.17" width="7.27" height="304.68"/><rect class="l" x="2297.05" y="788.17" width="7.27" height="304.68"/><rect class="l" x="2283.62" y="788.17" width="7.27" height="304.68"/><polygon class="l" points="2371.43 1092.85 2334.72 1092.85 2334.72 779.83 2371.43 797.23 2371.43 1092.85"/><rect class="k" x="2019.14" y="886.1" width="83.63" height="192.42"/><rect class="l" x="1943.48" y="986.88" width="179.05" height="4.17" transform="translate(3021.97 -1044.03) rotate(90)"/><rect class="l" x="1954.66" y="986.88" width="179.05" height="4.17" transform="translate(3033.15 -1055.21) rotate(90)"/><rect class="l" x="1965.84" y="986.88" width="179.05" height="4.17" transform="translate(3044.33 -1066.39) rotate(90)"/><rect class="l" x="1977.02" y="986.88" width="179.05" height="4.17" transform="translate(3055.51 -1077.58) rotate(90)"/><rect class="l" x="1988.2" y="986.88" width="179.05" height="4.17" transform="translate(3066.69 -1088.76) rotate(90)"/><rect class="l" x="1999.38" y="986.88" width="179.05" height="4.17" transform="translate(3077.87 -1099.94) rotate(90)"/><polygon class="l" points="2139.48 1078.53 2102.77 1078.53 2102.77 886.1 2139.48 903.5 2139.48 1078.53"/><path class="m" d="M2500.33,736.13v507.33H0v-222c.75-.2,1.49-.39,2.24-.57,229.08-57.86,511.32-96,913.45-63.35,265.47,21.57,547.47-6.41,814.73-52.16q28.82-4.94,57.39-10.13l4.35-.79,10.62-1.95,8.29-1.54q9.9-1.83,19.76-3.7,5.28-1,10.55-2l10.95-2.09,2.69-.52q13.5-2.61,26.91-5.25,17.77-3.51,35.43-7.09l2.69-.55q11.88-2.4,23.69-4.84l13-2.7q47.9-10,94.63-20.29l1.89-.42,21.64-4.8.06,0q14.45-3.21,28.76-6.45l2.44-.55,16.07-3.65q13.8-3.13,27.48-6.29l2.44-.56,10.26-2.37q11.52-2.65,22.94-5.32l8.32-2q9.84-2.29,19.59-4.6l2.69-.63q15.83-3.72,31.45-7.44l5.26-1.25q14.36-3.4,28.51-6.8l2.43-.58.23-.05,2.69-.64,22.07-5.3,8.17-2,1.83-.44,12.08-2.91,30.91-7.45,14.7-3.55,6.8-1.64,7.58-1.84,7.1-1.71,8.57-2.07,7.1-1.71,8.58-2.07,7.1-1.71L2434,752l5.94-1.43q14.71-3.54,29.13-7l5-1.2,22-5.24Z"/><path class="n" d="M2500.33,735.35v508.11H0V1144l2.24-.43c177.55-34.69,391.39-58.11,665.14-58,357.3.1,735.08-76.24,1063-158.11q29-7.23,57.39-14.5l4.35-1.11,10.62-2.73,8.29-2.13,6.81-1.76,23.5-6.09,10.95-2.86,1.26-.33,22.2-5.83,3.9-1,2.24-.59,15.46-4.09q10-2.65,20-5.3l2.69-.71q11.91-3.18,23.69-6.33l13-3.48q48.52-13,94.63-25.53l1.89-.52,21.64-5.86.06,0,28.76-7.79,2.44-.66,16.07-4.34L2144,818l8.22-2.2,10.26-2.76q6.62-1.78,13.17-3.53l9.77-2.61q14.13-3.78,27.91-7.41l2.69-.72q16-4.2,31.45-8.23l5.26-1.37q14.47-3.75,28.51-7.32l5.35-1.36,2.64-.67q9.83-2.49,19.43-4.87c2.74-.68,5.46-1.36,8.17-2q7-1.74,13.91-3.41,15.79-3.82,30.91-7.35,7.44-1.74,14.7-3.39l6.8-1.54,7.58-1.68,7.1-1.56,8.57-1.84,7.1-1.51,8.58-1.77,7.1-1.43,4.83-1,5.94-1.16q15.07-2.91,29.13-5.27l5-.83q11.37-1.85,22-3.31l4-.54Z"/></svg>