<svg xmlns="http://www.w3.org/2000/svg" xmlns:xlink="http://www.w3.org/1999/xlink" viewBox="0 0 1366 831.31"><style><![CDATA[.V{stroke:#fff}.W{stroke-miterlimit:10}.X{stroke-width:2}]]></style><defs><linearGradient id="A" x1="683" y1="768" x2="683" gradientUnits="userSpaceOnUse"><stop offset="0" stop-color="#3fa9f5"/><stop offset=".32" stop-color="#2a71f8"/><stop offset="1" stop-color="#00f"/></linearGradient><linearGradient id="B" x1="199.201" y1="424.962" x2="335.475" y2="434.501" gradientUnits="userSpaceOnUse"><stop offset=".4" stop-color="#3fa9f5"/><stop offset=".57" stop-color="#3ca0f6"/><stop offset=".69" stop-color="#2a71f9"/><stop offset="1" stop-color="#00f"/></linearGradient><linearGradient id="C" x1="509.34" y1="831.08" x2="509.55" y2="831.08" xlink:href="#A"/><linearGradient id="D" x1="537.79" y1="618.92" x2="672.04" y2="618.92" xlink:href="#A"/><linearGradient id="E" x1="654.12" y1="618.92" x2="811.76" y2="618.92" xlink:href="#A"/><linearGradient id="F" x1="725.8" y1="539" x2="725.8" y2="483" gradientUnits="userSpaceOnUse"><stop offset="0" stop-color="#17aebf"/><stop offset=".12" stop-color="#16a3c3"/><stop offset=".32" stop-color="#1286ce"/><stop offset=".58" stop-color="#0c57df"/><stop offset=".9" stop-color="#0317f7"/><stop offset="1" stop-color="#00f"/></linearGradient><linearGradient id="G" x1="1182.75" y1="240" x2="1182.75" y2="184" xlink:href="#F"/><linearGradient id="H" x1="766.96" y1="762.06" x2="974.5" y2="621.46" xlink:href="#A"/><linearGradient id="I" x1="893.83" y1="741.55" x2="1022.29" y2="654.52" xlink:href="#A"/><linearGradient id="J" x1="1084.5" y1="651" x2="1084.5" y2="595" xlink:href="#F"/><linearGradient id="K" x1="706.36" y1="757.35" x2="845.34" y2="663.2" xlink:href="#A"/><linearGradient id="L" x1="785.64" y1="744.63" x2="866.19" y2="690.06" xlink:href="#A"/><linearGradient id="M" x1="1063.32" y1="754.15" x2="1243.93" y2="631.79" xlink:href="#A"/><linearGradient id="N" x1="1166.46" y1="737.57" x2="1271.05" y2="666.71" xlink:href="#A"/><linearGradient id="O" x1="312.81" y1="782.2" x2="433.58" y2="700.39" xlink:href="#A"/><linearGradient id="P" x1="401.03" y1="767.7" x2="491.17" y2="706.63" xlink:href="#A"/><linearGradient id="Q" x1="415.21" y1="785.32" x2="559.42" y2="687.63" xlink:href="#A"/><linearGradient id="R" x1="521.31" y1="767.94" x2="628.4" y2="695.4" xlink:href="#A"/></defs><path d="M0 0h1366v768H0z" fill="url(#A)"/><g fill="#fff" class="V W X"><path d="M248.9 454.2l-1.43-.22-53.22-8.35 107.84-55.57-12.5 34.12"/><path d="M301.12 391.5l-47.48 41.06"/></g><path d="M196.3 445.92l118.5 18.7 21.28-51.27-139.8 32.57z" fill="url(#B)" class="V W X"/><path d="M199,446.06,327.08,436Z" fill="#fff" class="V W X"/><path d="M509.55 830.84l-.2.47" fill="url(#C)"/><path d="M672.04 470.46L654.3 768H537.8l133.96-298.16.3.62z" fill="url(#D)"/><path d="M811.76 768H654.12l17.13-297.03.5-1.13.3.62L811.76 768z" fill="url(#E)"/><path d="M824.3,539a25,25,0,0,0-45.78-19.27A38,38,0,0,0,722.79,502a39,39,0,0,0-72,14h-.46c-13.26,0-24,7.16-24,16a11.81,11.81,0,0,0,2.41,7Z" fill="url(#F)"/><path d="M1281.25 240a25 25 0 0 0-45.78-19.27 38 38 0 0 0-55.73-17.73 39 39 0 0 0-72 14h-.46c-13.26 0-24 7.16-24 16a11.81 11.81 0 0 0 2.41 7z" fill="url(#G)"/><path d="M930.78 549.72v.01L909 768H765.94l164.42-218.8.42.52z" fill="url(#H)"/><path d="M1102.2 768H908.63l21-217.84.72-.96.42.52v.01L1102.2 768z" fill="url(#I)"/><path d="M1215.67 651a19.31 19.31 0 0 0 1.33-7c0-13.8-14.9-25-33.3-25-12.45 0-23.3 5.13-29 12.73-7.52-13.9-25.7-23.73-46.9-23.73a62.93 62.93 0 0 0-27.31 6c-9.06-11.4-25.64-19-44.6-19-26 0-47.48 14.3-51.32 33H984c-17.65 0-32 7.16-32 16a10.07 10.07 0 0 0 3.22 7z" fill="url(#J)"/><path d="M813.53 611.4v.01L799.9 768h-89.7L813.2 610.96l.32.45z" fill="url(#K)"/><path d="M910.5 752.86l-.37-.53-96.9-141.36-.54.83L799.5 768H920.9z" fill="url(#L)"/><path d="M1202.52 564.38L1184.78 768H1068.3l133.9-204.08.32.46z" fill="url(#M)"/><path d="M1202.2 563.92l.32.46L1342.13 768h-157.6l17.1-203.24.55-.84z" fill="url(#N)"/><path d="M414.92 668.65l-15.3 99.62h-.4l.08-.56.05-.28h-99.48l3.47-3 .07-.05 111.18-96 .33.27z" fill="url(#O)"/><path d="M534.48 767.43H399.73l-.12.84h-.4l.08-.56.05-.28L414 668.9l.6-.5.33.27 32.64 26.96 86.92 71.82z" fill="url(#P)"/><path d="M536.95 649.72l-.7.6L399.97 768H519.2l18.14-117.95-.4-.33z" fill="url(#Q)"/><path d="M680.1 768H518.75l17.5-117.67.7-.6 39.37 32.52L680.1 768z" fill="url(#R)"/><path d="M1138.73 240.08C1134 255 1129 270 1120 284c-7 9-13 17-20 25-10 10-19 19-31 27-38 26-80 39-125 32-16-3-28-11-42-19-43-27-80-58-131-67-49-8-90 12-131 38-3 3-6 5-9 8-8 5-15 10-23 16-42 34-80 68-130 88l-25 9c-18 5-37 9-56 7-21-2-41-8-61.5-11.5" fill="none" stroke-dasharray="11" class="V W"/></svg>