<svg xmlns="http://www.w3.org/2000/svg" xmlns:xlink="http://www.w3.org/1999/xlink" viewBox="0 0 1366 774.44"><defs><linearGradient id="A" x1="55.28" y1="808.91" x2="1189.18" y2="40.75" gradientUnits="userSpaceOnUse"><stop offset="0" stop-color="#3fa9f5"/><stop offset=".32" stop-color="#2a71f8"/><stop offset="1" stop-color="#00f"/></linearGradient><linearGradient id="B" x1="683" y1="768" x2="683" y2="0" xlink:href="#A"/><linearGradient id="C" x1="96.65" y1="765" x2="96.65" y2="709" gradientUnits="userSpaceOnUse"><stop offset=".06" stop-color="#fff"/><stop offset=".07" stop-color="#ddf3f6"/><stop offset=".08" stop-color="#b4e5ea"/><stop offset=".1" stop-color="#8ed8e0"/><stop offset=".11" stop-color="#6eccd7"/><stop offset=".13" stop-color="#52c3cf"/><stop offset=".15" stop-color="#3cbbc9"/><stop offset=".17" stop-color="#2bb5c5"/><stop offset=".2" stop-color="#20b1c1"/><stop offset=".23" stop-color="#19afc0"/><stop offset=".34" stop-color="#17aebf"/><stop offset=".41" stop-color="#16a7c2"/><stop offset=".52" stop-color="#1393c9"/><stop offset=".66" stop-color="#0f72d5"/><stop offset=".81" stop-color="#0945e6"/><stop offset=".97" stop-color="#020cfb"/><stop offset="1" stop-color="#00f"/></linearGradient><linearGradient id="D" x1="252.59" y1="761" x2="252.59" y2="705" xlink:href="#C"/><linearGradient id="E" x1="376.59" y1="760" x2="376.59" y2="704" xlink:href="#C"/><linearGradient id="F" x1="735.59" y1="749" x2="735.59" y2="693" xlink:href="#C"/><linearGradient id="G" x1="1038.59" y1="751" x2="1038.59" y2="695" xlink:href="#C"/><linearGradient id="H" x1="560.59" y1="756" x2="560.59" y2="700" xlink:href="#C"/><linearGradient id="I" x1="1240.05" y1="753" x2="1240.05" y2="697" xlink:href="#C"/><path id="J" d="M691.76 756a19.31 19.31 0 0 0 1.33-7c0-13.8-14.9-25-33.3-25-12.45 0-23.3 5.13-29 12.73-7.52-13.9-25.68-23.73-46.9-23.73a62.94 62.94 0 0 0-27.32 6c-9.06-11.4-25.64-19-44.6-19-26 0-47.5 14.3-51.33 33h-.6c-17.65 0-32 7.16-32 16a10.07 10.07 0 0 0 3.22 7z"/></defs><path d="M1304.55 193.4c-76.55-40.4-197.92-41.67-268-50.4C884 124 834.46 24.25 816.05 0H0v768h1365V268.1c-9.75-21.7-27.62-57.36-60.45-74.7z" fill="url(#A)"/><path d="M0 0h1366v768H0z" fill="url(#B)"/><path d="M193.3 758a24.88 24.88 0 0 1-1 7H0v-17.35C4.4 744.2 11 742 18.3 742h.46a39 39 0 0 1 72-14 38 38 0 0 1 55.73 17.71A25 25 0 0 1 193.3 758z" fill="url(#C)"/><path d="M351.1 761a25 25 0 0 0-45.78-19.27A38 38 0 0 0 249.58 724a39 39 0 0 0-72 14h-.46c-13.25 0-24 7.16-24 16a11.76 11.76 0 0 0 2.42 7z" fill="url(#D)"/><path d="M475.1 760a25 25 0 0 0-45.78-19.27A38 38 0 0 0 373.58 723a39 39 0 0 0-72 14h-.46c-13.25 0-24 7.16-24 16a11.76 11.76 0 0 0 2.42 7z" fill="url(#E)"/><path d="M834.1 749a25 25 0 0 0-45.78-19.27A38 38 0 0 0 732.58 712a39 39 0 0 0-72 14h-.46c-13.25 0-24 7.16-24 16a11.76 11.76 0 0 0 2.42 7z" fill="url(#F)"/><path d="M1137.1 751a25 25 0 0 0-45.78-19.27 38 38 0 0 0-55.73-17.73 39 39 0 0 0-72 14h-.46c-13.25 0-24 7.16-24 16a11.76 11.76 0 0 0 2.42 7z" fill="url(#G)"/><use xlink:href="#J" fill="url(#H)"/><use xlink:href="#J" x="328" y="-1" fill="url(#H)"/><path d="M1366 726.13V753h-248.7a11.67 11.67 0 0 1-2.65-4 8.16 8.16 0 0 1-.57-3c0-8.84 14.3-16 32-16h.6c3.84-18.7 25.36-33 51.33-33 19 0 35.53 7.63 44.6 19a62.94 62.94 0 0 1 27.32-6c21.22 0 39.38 9.82 46.9 23.73 5.7-7.6 16.55-12.73 29-12.73a40.68 40.68 0 0 1 20.16 5.13z" fill="url(#I)"/><path d="M0 749h1366v25.44H0z" fill="#fff"/></svg>