<svg xmlns="http://www.w3.org/2000/svg" xmlns:xlink="http://www.w3.org/1999/xlink" viewBox="0 0 1366 831.31"><defs><style>.a{fill:url(#a);}.b,.u{fill:none;}.c{fill:#fff;}.c,.d,.u{stroke:#fff;stroke-miterlimit:10;}.c,.d{stroke-width:2px;}.d{fill:url(#b);}.e{fill:url(#c);}.f{fill:url(#d);}.g{fill:url(#e);}.h{fill:url(#f);}.i{fill:url(#g);}.j{fill:url(#h);}.k{fill:url(#i);}.l{fill:url(#j);}.m{fill:url(#k);}.n{fill:url(#l);}.o{fill:url(#m);}.p{fill:url(#n);}.q{fill:url(#o);}.r{fill:url(#p);}.s{fill:url(#q);}.t{fill:url(#r);}.u{stroke-dasharray:11;}</style><linearGradient id="a" x1="683" y1="768" x2="683" gradientUnits="userSpaceOnUse"><stop offset="0" stop-color="#3fa9f5"/><stop offset="0.32" stop-color="#2a71f8"/><stop offset="1" stop-color="blue"/></linearGradient><linearGradient id="b" x1="194.81" y1="428.15" x2="332.46" y2="428.15" gradientTransform="matrix(0.99, 0.16, -0.07, 1, 36.31, -40.6)" gradientUnits="userSpaceOnUse"><stop offset="0.4" stop-color="#3fa9f5"/><stop offset="0.57" stop-color="#3ca0f6"/><stop offset="0.69" stop-color="#2a71f9"/><stop offset="1" stop-color="blue"/></linearGradient><linearGradient id="c" x1="509.34" y1="831.08" x2="509.55" y2="831.08" xlink:href="#a"/><linearGradient id="d" x1="537.79" y1="618.92" x2="672.04" y2="618.92" xlink:href="#a"/><linearGradient id="e" x1="654.12" y1="618.92" x2="811.76" y2="618.92" xlink:href="#a"/><linearGradient id="f" x1="725.8" y1="539" x2="725.8" y2="483" gradientUnits="userSpaceOnUse"><stop offset="0" stop-color="#17aebf"/><stop offset="0.12" stop-color="#16a3c3"/><stop offset="0.32" stop-color="#1286ce"/><stop offset="0.58" stop-color="#0c57df"/><stop offset="0.9" stop-color="#0317f7"/><stop offset="1" stop-color="blue"/></linearGradient><linearGradient id="g" x1="1182.75" y1="240" x2="1182.75" y2="184" xlink:href="#f"/><linearGradient id="h" x1="766.96" y1="762.06" x2="974.5" y2="621.46" xlink:href="#a"/><linearGradient id="i" x1="893.83" y1="741.55" x2="1022.29" y2="654.52" xlink:href="#a"/><linearGradient id="j" x1="1084.5" y1="651" x2="1084.5" y2="595" xlink:href="#f"/><linearGradient id="k" x1="706.36" y1="757.35" x2="845.34" y2="663.2" xlink:href="#a"/><linearGradient id="l" x1="785.64" y1="744.63" x2="866.19" y2="690.06" xlink:href="#a"/><linearGradient id="m" x1="1063.32" y1="754.15" x2="1243.93" y2="631.79" xlink:href="#a"/><linearGradient id="n" x1="1166.46" y1="737.57" x2="1271.05" y2="666.71" xlink:href="#a"/><linearGradient id="o" x1="312.81" y1="782.2" x2="433.58" y2="700.39" xlink:href="#a"/><linearGradient id="p" x1="401.03" y1="767.7" x2="491.17" y2="706.63" xlink:href="#a"/><linearGradient id="q" x1="415.21" y1="785.32" x2="559.42" y2="687.63" xlink:href="#a"/><linearGradient id="r" x1="521.31" y1="767.94" x2="628.4" y2="695.4" xlink:href="#a"/></defs><title>back3-5</title><rect class="a" width="1366" height="768"/><line class="b" x1="519.06" y1="768" x2="518.6" y2="768"/><polyline class="c" points="248.89 454.21 247.46 453.99 194.24 445.64 302.08 390.07 289.58 424.19"/><line class="c" x1="301.12" y1="391.5" x2="253.64" y2="432.56"/><polygon class="d" points="196.3 445.92 314.81 464.62 336.09 413.35 196.3 445.92"/><path class="c" d="M199,446.06,327.08,436Z"/><line class="e" x1="509.55" y1="830.84" x2="509.34" y2="831.31"/><polygon class="f" points="672.04 470.46 655.51 747.68 654.3 768 537.79 768 547.1 747.28 576.32 682.24 671.25 470.97 671.75 469.84 672.04 470.46"/><polygon class="g" points="811.76 768 654.12 768 655.3 747.5 671.25 470.97 671.75 469.84 672.04 470.46 769.39 677.76 794.14 730.47 801.37 745.88 801.75 746.68 811.76 768"/><path class="h" d="M824.3,539a25,25,0,0,0-45.78-19.27A38,38,0,0,0,722.79,502a39,39,0,0,0-72,14h-.46c-13.26,0-24,7.16-24,16a11.81,11.81,0,0,0,2.41,7Z"/><path class="i" d="M1281.25,240a25,25,0,0,0-24-32,25,25,0,0,0-21.78,12.73A38,38,0,0,0,1179.74,203a39,39,0,0,0-72,14h-.46c-13.26,0-24,7.16-24,16a11.81,11.81,0,0,0,2.41,7Z"/><polygon class="j" points="930.78 549.72 930.78 549.73 910.51 752.86 909 768 765.94 768 794.14 730.47 803.75 717.68 804.34 716.9 846.96 660.18 929.64 550.16 930.36 549.2 930.78 549.72"/><polygon class="k" points="1102.19 768 908.63 768 910.14 752.33 929.64 550.16 930.36 549.2 930.78 549.72 930.78 549.73 1083.73 744.49 1102.19 768"/><path class="l" d="M1215.67,651a19.31,19.31,0,0,0,1.33-7c0-13.81-14.91-25-33.29-25-12.45,0-23.29,5.13-29,12.73C1147.19,617.82,1129,608,1107.8,608a62.93,62.93,0,0,0-27.31,6c-9.06-11.39-25.64-19-44.6-19-26,0-47.48,14.31-51.32,33H984c-17.65,0-32,7.16-32,16a10.07,10.07,0,0,0,3.22,7Z"/><polygon class="m" points="813.53 611.41 813.53 611.42 804.34 716.9 801.75 746.68 799.89 768 710.19 768 769.39 677.76 812.67 611.79 813.21 610.96 813.53 611.41"/><path class="n" d="M910.51,752.86l-.37-.53L847,660.18l-33.43-48.76h0l-.32-.45-.54.83-8.92,105.89-2.38,28.2L799.51,768H920.89Z"/><polygon class="o" points="1202.52 564.38 1184.78 768 1068.31 768 1083.73 744.49 1201.64 564.78 1201.65 564.76 1202.2 563.92 1202.52 564.38"/><polygon class="p" points="1202.2 563.92 1202.52 564.38 1342.13 768 1184.78 768 1184.54 768 1201.64 564.78 1201.65 564.76 1202.2 563.92"/><polygon class="q" points="414.92 668.65 404.38 737.21 404.26 737.96 399.73 767.43 399.69 767.71 399.61 768.27 399.22 768.27 399.3 767.71 399.35 767.43 299.87 767.43 303.26 764.5 303.33 764.44 303.34 764.43 303.41 764.38 365.16 711.05 365.7 710.59 413.99 668.89 414.59 668.38 414.92 668.65"/><polygon class="r" points="534.48 767.43 399.73 767.43 399.69 767.71 399.61 768.27 399.22 768.27 399.3 767.71 399.35 767.43 403.78 737.63 403.89 736.86 413.99 668.89 414.59 668.38 414.92 668.65 447.56 695.61 513.7 750.26 513.88 750.42 534.48 767.43"/><polygon class="s" points="536.95 649.72 536.24 650.33 478.57 700.12 477.93 700.68 404.19 764.35 404.11 764.42 404.1 764.43 404.02 764.5 399.97 768 518.75 768 519.21 768 524.62 732.81 524.76 731.91 537.35 650.05 536.95 649.72"/><polygon class="t" points="680.11 768 518.75 768 524.05 732.41 524.18 731.5 536.24 650.33 536.95 649.72 537.35 650.05 576.32 682.24 655.3 747.5 655.51 747.68 680.11 768"/><path class="u" d="M1138.73,240.08C1134,255,1129,270,1120,284c-7,9-13,17-20,25-10,10-19,19-31,27-38,26-80,39-125,32-16-3-28-11-42-19-43-27-80-58-131-67-49-8-90,12-131,38-3,3-6,5-9,8-8,5-15,10-23,16-42,34-80,68-130,88-8,3-17,6-25,9-18,5-37,9-56,7-21-2-41-8-61.5-11.5"/></svg>