<svg xmlns="http://www.w3.org/2000/svg" xmlns:xlink="http://www.w3.org/1999/xlink" viewBox="0 0 1366 774.44"><defs><style>.a{fill:url(#a);}.b{fill:none;}.c{fill:url(#b);}.d{fill:url(#c);}.e{fill:url(#d);}.f{fill:url(#e);}.g{fill:url(#f);}.h{fill:url(#g);}.i{fill:url(#h);}.j{fill:url(#i);}.k{fill:url(#j);}.l{fill:url(#k);}.m{fill:url(#l);}.n{fill:url(#m);}.o{fill:url(#n);}.p{fill:url(#o);}.q{fill:url(#p);}.r{fill:url(#q);}.s{fill:#fff;}</style><linearGradient id="a" x1="683" y1="768" x2="683" gradientUnits="userSpaceOnUse"><stop offset="0" stop-color="#3fa9f5"/><stop offset="0.32" stop-color="#2a71f8"/><stop offset="1" stop-color="blue"/></linearGradient><linearGradient id="b" x1="181.82" y1="719.43" x2="380.82" y2="719.43" gradientUnits="userSpaceOnUse"><stop offset="0.02" stop-color="#17aebf"/><stop offset="0.2" stop-color="#1079d2"/><stop offset="0.38" stop-color="#0a4ee2"/><stop offset="0.56" stop-color="#062cef"/><stop offset="0.72" stop-color="#0314f8"/><stop offset="0.87" stop-color="#0105fd"/><stop offset="1" stop-color="blue"/></linearGradient><linearGradient id="c" x1="28.73" y1="719" x2="275.73" y2="719" xlink:href="#b"/><linearGradient id="d" x1="305.82" y1="719.71" x2="556.73" y2="719.71" xlink:href="#b"/><linearGradient id="e" x1="965.82" y1="718.14" x2="1200.73" y2="718.14" xlink:href="#b"/><linearGradient id="f" x1="1132.82" y1="717.85" x2="1366" y2="717.85" xlink:href="#b"/><linearGradient id="g" x1="784.82" y1="718.57" x2="1049.82" y2="718.57" xlink:href="#b"/><linearGradient id="h" x1="446.82" y1="719.28" x2="711.82" y2="719.28" xlink:href="#b"/><linearGradient id="i" x1="664.82" y1="719.14" x2="863.82" y2="719.14" xlink:href="#b"/><linearGradient id="j" x1="252.59" y1="758.29" x2="252.59" y2="702.29" gradientUnits="userSpaceOnUse"><stop offset="0.06" stop-color="#fff"/><stop offset="0.07" stop-color="#ddf3f6"/><stop offset="0.08" stop-color="#b4e5ea"/><stop offset="0.1" stop-color="#8ed8e0"/><stop offset="0.11" stop-color="#6eccd7"/><stop offset="0.13" stop-color="#52c3cf"/><stop offset="0.15" stop-color="#3cbbc9"/><stop offset="0.17" stop-color="#2bb5c5"/><stop offset="0.2" stop-color="#20b1c1"/><stop offset="0.23" stop-color="#19afc0"/><stop offset="0.34" stop-color="#17aebf"/><stop offset="0.41" stop-color="#16a7c2"/><stop offset="0.52" stop-color="#1393c9"/><stop offset="0.66" stop-color="#0f72d5"/><stop offset="0.81" stop-color="#0945e6"/><stop offset="0.97" stop-color="#020cfb"/><stop offset="1" stop-color="blue"/></linearGradient><linearGradient id="k" x1="123.5" y1="757.86" x2="123.5" y2="701.86" xlink:href="#j"/><linearGradient id="l" x1="402.55" y1="758.57" x2="402.55" y2="702.57" xlink:href="#j"/><linearGradient id="m" x1="1054.55" y1="757" x2="1054.55" y2="701" xlink:href="#j"/><linearGradient id="n" x1="1235.05" y1="756.71" x2="1235.05" y2="700.71" xlink:href="#j"/><linearGradient id="o" x1="888.59" y1="757.43" x2="888.59" y2="701.43" xlink:href="#j"/><linearGradient id="p" x1="550.59" y1="758.14" x2="550.59" y2="702.14" xlink:href="#j"/><linearGradient id="q" x1="735.59" y1="758" x2="735.59" y2="702" xlink:href="#j"/></defs><title>back-services</title><rect class="a" width="1366" height="768"/><line class="b" x1="519.06" y1="768" x2="518.6" y2="768"/><path class="c" d="M379.82,747.43A25,25,0,0,0,334,728.16a38,38,0,0,0-55.73-17.72,39,39,0,0,0-72,14h-.46c-13.25,0-24,7.16-24,16a11.78,11.78,0,0,0,2.42,7Z"/><path class="d" d="M275.73,740a18.2,18.2,0,0,1-1.42,7H28.73V719.69c6.43-16.54,28-28.69,53.52-28.69,20.24,0,38,7.63,47.64,19a71.14,71.14,0,0,1,29.18-6c22.68,0,42.08,9.82,50.11,23.73,6.1-7.6,17.68-12.73,31-12.73C259.81,715,275.73,726.19,275.73,740Z"/><path class="e" d="M555.47,747.71a20.36,20.36,0,0,0,1.26-7c0-13.81-14.11-25-31.52-25-11.79,0-22.06,5.14-27.46,12.73-7.12-13.91-24.31-23.73-44.41-23.73a57.07,57.07,0,0,0-25.86,6c-8.58-11.39-24.28-19-42.23-19-24.58,0-45,14.32-48.59,33h-.58c-16.71,0-30.26,7.17-30.26,16a10.33,10.33,0,0,0,3.05,7Z"/><path class="f" d="M1199.55,746.14a21.56,21.56,0,0,0,1.18-7c0-13.81-13.21-25-29.51-25-11,0-20.65,5.13-25.71,12.73-6.66-13.91-22.76-23.73-41.58-23.73a50.69,50.69,0,0,0-24.21,6c-8-11.39-22.73-19-39.53-19-23,0-42.09,14.31-45.5,33h-.54c-15.65,0-28.33,7.16-28.33,16a10.7,10.7,0,0,0,2.85,7Z"/><path class="g" d="M1366,721v24.81H1136.42a11.66,11.66,0,0,1-3-4c-.12-.28-.23-.57-.32-.85a7.46,7.46,0,0,1-.32-2.15,8.3,8.3,0,0,1,1.76-5,16,16,0,0,1,4-3.75,29.11,29.11,0,0,1,4-2.29c.89-.41,1.83-.81,2.82-1.19l.33-.13c.94-.34,1.92-.67,2.94-1a70.22,70.22,0,0,1,19.91-2.71h.68a29.31,29.31,0,0,1,3.58-8.68A41.62,41.62,0,0,1,1185,701.69c10.56-7.31,25.34-11.84,41.7-11.84,21.21,0,39.76,7.63,49.9,19a77.55,77.55,0,0,1,30.58-6c22.78,0,42.41,9,51.39,22.06.39.55.75,1.1,1.09,1.67.53-.63,1.1-1.24,1.7-1.83A30.72,30.72,0,0,1,1366,721Z"/><path class="h" d="M1048.49,746.57a19.31,19.31,0,0,0,1.33-7c0-13.81-14.9-25-33.29-25-12.45,0-23.29,5.13-29,12.73-7.51-13.91-25.67-23.73-46.9-23.73a62.93,62.93,0,0,0-27.31,6c-9.06-11.39-25.64-19-44.6-19-26,0-47.48,14.31-51.32,33h-.61c-17.65,0-32,7.16-32,16a10.09,10.09,0,0,0,3.22,7Z"/><path class="i" d="M710.49,747.28a19.31,19.31,0,0,0,1.33-7c0-13.8-14.9-25-33.29-25-12.45,0-23.29,5.14-29,12.73-7.51-13.91-25.67-23.73-46.9-23.73a63.07,63.07,0,0,0-27.31,6c-9.06-11.39-25.64-19-44.6-19-26,0-47.48,14.32-51.32,33h-.61c-17.65,0-32,7.17-32,16a10.07,10.07,0,0,0,3.22,7Z"/><path class="j" d="M862.82,747.14A25,25,0,0,0,817,727.87a38,38,0,0,0-55.73-17.71,39,39,0,0,0-72,14h-.46c-13.25,0-24,7.16-24,16a11.76,11.76,0,0,0,2.42,7Z"/><path class="k" d="M351.09,758.29A25,25,0,0,0,305.31,739a38,38,0,0,0-55.73-17.72,39,39,0,0,0-72,14h-.46c-13.25,0-24,7.16-24,16a11.78,11.78,0,0,0,2.42,7Z"/><path class="l" d="M247,750.86a18.2,18.2,0,0,1-1.42,7H0V730.55C6.43,714,28,701.86,53.52,701.86c20.24,0,37.95,7.63,47.64,19a71.14,71.14,0,0,1,29.18-6c22.68,0,42.08,9.82,50.11,23.73,6.1-7.6,17.68-12.73,31-12.73C231.08,725.86,247,737.05,247,750.86Z"/><path class="m" d="M526.74,758.57a20.36,20.36,0,0,0,1.26-7c0-13.81-14.11-25-31.52-25-11.79,0-22.05,5.13-27.46,12.73-7.12-13.91-24.31-23.73-44.41-23.73a57.07,57.07,0,0,0-25.86,6c-8.58-11.39-24.28-19-42.23-19-24.58,0-45,14.32-48.59,33h-.58c-16.71,0-30.26,7.16-30.26,16a10.33,10.33,0,0,0,3.05,7Z"/><path class="n" d="M1170.82,757a21.56,21.56,0,0,0,1.18-7c0-13.81-13.21-25-29.51-25-11,0-20.65,5.13-25.71,12.73C1110.12,723.82,1094,714,1075.2,714a50.57,50.57,0,0,0-24.21,6c-8-11.39-22.73-19-39.53-19-23,0-42.09,14.31-45.5,33h-.54c-15.64,0-28.33,7.16-28.33,16a10.7,10.7,0,0,0,2.85,7Z"/><path class="o" d="M1366,724.78v31.93H1107.69a11.66,11.66,0,0,1-3-4,7.32,7.32,0,0,1-.64-3,7.86,7.86,0,0,1,.89-3.57,14.59,14.59,0,0,1,4.87-5.14,32,32,0,0,1,6.83-3.48l.33-.13a63.21,63.21,0,0,1,17.57-3.5c1.72-.12,3.49-.18,5.28-.18h.68a28.62,28.62,0,0,1,2-5.87,30.77,30.77,0,0,1,1.53-2.81c.07-.13.15-.25.23-.38,7.16-11.47,22.24-20.16,40.66-23a85.55,85.55,0,0,1,13-1c21.21,0,39.76,7.63,49.9,19a77.55,77.55,0,0,1,30.58-6c23.74,0,44.07,9.82,52.48,23.73,5.64-6.71,15.76-11.5,27.64-12.53.92-.07,1.85-.13,2.79-.16.67,0,1.34,0,2,0l1.61,0Z"/><path class="p" d="M1019.76,757.43a19.31,19.31,0,0,0,1.33-7c0-13.81-14.9-25-33.29-25-12.45,0-23.29,5.13-29,12.73-7.52-13.91-25.68-23.73-46.9-23.73a62.94,62.94,0,0,0-27.32,6c-9.06-11.39-25.64-19-44.59-19-26,0-47.49,14.31-51.33,33h-.61c-17.65,0-32,7.16-32,16a10.09,10.09,0,0,0,3.22,7Z"/><path class="q" d="M681.76,758.14a19.31,19.31,0,0,0,1.33-7c0-13.8-14.9-25-33.29-25-12.45,0-23.29,5.14-29,12.73-7.52-13.91-25.68-23.73-46.9-23.73a63.08,63.08,0,0,0-27.32,6c-9.06-11.39-25.64-19-44.59-19-26,0-47.49,14.32-51.33,33h-.61c-17.65,0-32,7.17-32,16a10.07,10.07,0,0,0,3.22,7Z"/><path class="r" d="M834.09,758a25,25,0,0,0-45.78-19.27A38,38,0,0,0,732.58,721a39,39,0,0,0-72,14h-.46c-13.25,0-24,7.16-24,16a11.76,11.76,0,0,0,2.42,7Z"/><rect class="s" y="741" width="1366" height="33.44"/></svg>