<svg xmlns="http://www.w3.org/2000/svg" xmlns:xlink="http://www.w3.org/1999/xlink" viewBox="0 0 1366.56 435.65"><defs><style>.a{fill:url(#a);}.b{fill:url(#b);}.c{fill:url(#c);}.d{fill:url(#d);}.e{fill:url(#e);}.f{fill:url(#f);}.g{fill:url(#g);}.h{fill:url(#h);}.i{fill:url(#i);}.j{fill:url(#j);}.k{fill:url(#k);}.l{fill:url(#l);}.m{fill:url(#m);}.n{fill:url(#n);}.o{fill:url(#o);}.p{fill:url(#p);}.q{fill:url(#q);}.r{fill:#fff;}</style><linearGradient id="a" x1="683" y1="-1181.55" x2="683" y2="-746.55" gradientTransform="matrix(1, 0, 0, -1, 0, -746.55)" gradientUnits="userSpaceOnUse"><stop offset="0" stop-color="#3fa9f5"/><stop offset="0.07" stop-color="#3183f7"/><stop offset="0.14" stop-color="#2460f9"/><stop offset="0.22" stop-color="#1942fb"/><stop offset="0.31" stop-color="#102afd"/><stop offset="0.42" stop-color="#0917fe"/><stop offset="0.54" stop-color="#040afe"/><stop offset="0.69" stop-color="#0102ff"/><stop offset="1" stop-color="blue"/></linearGradient><linearGradient id="b" x1="182.37" y1="-1133" x2="381.43" y2="-1133" gradientTransform="matrix(1, 0, 0, -1, 0, -746.55)" gradientUnits="userSpaceOnUse"><stop offset="0.02" stop-color="#17aebf"/><stop offset="0.2" stop-color="#1079d2"/><stop offset="0.38" stop-color="#0a4ee2"/><stop offset="0.56" stop-color="#062cef"/><stop offset="0.72" stop-color="#0314f8"/><stop offset="0.87" stop-color="#0105fd"/><stop offset="1" stop-color="blue"/></linearGradient><linearGradient id="c" x1="29.29" y1="-1132.55" x2="276.29" y2="-1132.55" xlink:href="#b"/><linearGradient id="d" x1="306.38" y1="-1133.26" x2="557.29" y2="-1133.26" xlink:href="#b"/><linearGradient id="e" x1="966.38" y1="-1131.69" x2="1201.29" y2="-1131.69" xlink:href="#b"/><linearGradient id="f" x1="1133.34" y1="-1131.38" x2="1366.56" y2="-1131.38" xlink:href="#b"/><linearGradient id="g" x1="785.35" y1="-1132.12" x2="1050.38" y2="-1132.12" xlink:href="#b"/><linearGradient id="h" x1="447.35" y1="-1132.83" x2="712.38" y2="-1132.83" xlink:href="#b"/><linearGradient id="i" x1="665.37" y1="-1132.72" x2="864.43" y2="-1132.72" xlink:href="#b"/><linearGradient id="j" x1="253.18" y1="-1171.84" x2="253.18" y2="-1115.85" gradientTransform="matrix(1, 0, 0, -1, 0, -746.55)" gradientUnits="userSpaceOnUse"><stop offset="0.06" stop-color="#fff"/><stop offset="0.07" stop-color="#ddf3f6"/><stop offset="0.08" stop-color="#b4e5ea"/><stop offset="0.1" stop-color="#8ed8e0"/><stop offset="0.11" stop-color="#6eccd7"/><stop offset="0.13" stop-color="#52c3cf"/><stop offset="0.15" stop-color="#3cbbc9"/><stop offset="0.17" stop-color="#2bb5c5"/><stop offset="0.2" stop-color="#20b1c1"/><stop offset="0.23" stop-color="#19afc0"/><stop offset="0.34" stop-color="#17aebf"/><stop offset="0.41" stop-color="#16a7c2"/><stop offset="0.52" stop-color="#1393c9"/><stop offset="0.66" stop-color="#0f72d5"/><stop offset="0.81" stop-color="#0945e6"/><stop offset="0.97" stop-color="#020cfb"/><stop offset="1" stop-color="blue"/></linearGradient><linearGradient id="k" x1="124.06" y1="-1171.41" x2="124.06" y2="-1115.41" xlink:href="#j"/><linearGradient id="l" x1="403.11" y1="-1172.12" x2="403.11" y2="-1116.12" xlink:href="#j"/><linearGradient id="m" x1="1055.11" y1="-1170.55" x2="1055.11" y2="-1114.55" xlink:href="#j"/><linearGradient id="n" x1="1235.59" y1="-1170.26" x2="1235.59" y2="-1114.26" xlink:href="#j"/><linearGradient id="o" x1="889.13" y1="-1170.98" x2="889.13" y2="-1114.98" xlink:href="#j"/><linearGradient id="p" x1="551.13" y1="-1171.69" x2="551.13" y2="-1115.69" xlink:href="#j"/><linearGradient id="q" x1="736.17" y1="-1171.55" x2="736.17" y2="-1115.57" xlink:href="#j"/></defs><title>cloud-back</title><rect class="a" width="1366" height="435"/><path class="b" d="M380.38,414.43a25,25,0,0,0-45.82-19.27,38,38,0,0,0-55.73-17.72,39,39,0,0,0-72,14h-.46c-13.25,0-24,7.16-24,16a11.88,11.88,0,0,0,2.42,7Z"/><path class="c" d="M276.29,407a18,18,0,0,1-1.42,7H29.29V386.69c6.43-16.54,28-28.69,53.52-28.69,20.24,0,38,7.63,47.64,19a71.14,71.14,0,0,1,29.18-6c22.68,0,42.08,9.82,50.11,23.73,6.1-7.6,17.68-12.73,31-12.73C260.37,382,276.29,393.19,276.29,407Z"/><path class="d" d="M556,414.71a20.15,20.15,0,0,0,1.26-7c0-13.81-14.11-25-31.52-25-11.79,0-22.06,5.14-27.46,12.73-7.12-13.91-24.31-23.73-44.41-23.73a57.15,57.15,0,0,0-25.86,6c-8.58-11.39-24.28-19-42.23-19-24.58,0-45,14.32-48.59,33h-.58c-16.71,0-30.26,7.17-30.26,16a10.36,10.36,0,0,0,3.05,7Z"/><path class="e" d="M1200.11,413.14a21.39,21.39,0,0,0,1.18-7c0-13.81-13.21-25-29.51-25-11,0-20.65,5.13-25.71,12.73-6.66-13.91-22.76-23.73-41.58-23.73a50.64,50.64,0,0,0-24.21,6c-8-11.39-22.73-19-39.53-19-23,0-42.09,14.31-45.5,33h-.54c-15.65,0-28.33,7.16-28.33,16a10.72,10.72,0,0,0,2.85,7Z"/><path class="f" d="M1366.56,388v24.81H1137a11.81,11.81,0,0,1-3-4c-.12-.28-.23-.57-.32-.85a7.83,7.83,0,0,1-.32-2.15,8.4,8.4,0,0,1,1.76-5,16.21,16.21,0,0,1,4-3.75,29.94,29.94,0,0,1,4-2.29c.89-.41,1.83-.81,2.82-1.19l.33-.13c.94-.34,1.92-.67,2.94-1a70.23,70.23,0,0,1,19.91-2.71h.68a29.33,29.33,0,0,1,3.58-8.68,41.7,41.7,0,0,1,12.2-12.37c10.56-7.31,25.34-11.84,41.7-11.84,21.21,0,39.76,7.63,49.9,19a77.56,77.56,0,0,1,30.58-6c22.78,0,42.41,9,51.39,22.06.39.55.75,1.1,1.09,1.67.53-.63,1.1-1.24,1.7-1.83A31.47,31.47,0,0,1,1366.56,388Z"/><path class="g" d="M1049.05,413.57a19,19,0,0,0,1.33-7c0-13.81-14.9-25-33.29-25-12.45,0-23.29,5.13-29,12.73-7.51-13.91-25.67-23.73-46.9-23.73a63,63,0,0,0-27.31,6c-9.06-11.39-25.64-19-44.6-19-26,0-47.48,14.31-51.32,33h-.61c-17.65,0-32,7.16-32,16a10.14,10.14,0,0,0,3.22,7Z"/><path class="h" d="M711.05,414.28a19,19,0,0,0,1.33-7c0-13.8-14.9-25-33.29-25-12.45,0-23.29,5.14-29,12.73-7.51-13.91-25.67-23.73-46.9-23.73a63,63,0,0,0-27.31,6c-9.06-11.39-25.64-19-44.6-19-26,0-47.48,14.32-51.32,33h-.61c-17.65,0-32,7.17-32,16a10.12,10.12,0,0,0,3.22,7Z"/><path class="i" d="M863.38,414.14a25,25,0,0,0-45.82-19.27,38,38,0,0,0-55.73-17.71,39,39,0,0,0-72,14h-.46c-13.25,0-24,7.16-24,16a11.88,11.88,0,0,0,2.42,7Z"/><path class="j" d="M351.65,425.29A25,25,0,0,0,305.87,406a38,38,0,0,0-55.73-17.72,39,39,0,0,0-72,14h-.46c-13.25,0-24,7.16-24,16a11.88,11.88,0,0,0,2.42,7Z"/><path class="k" d="M247.56,417.86a18,18,0,0,1-1.42,7H.56V397.55C7,381,28.56,368.86,54.08,368.86c20.24,0,38,7.63,47.64,19a71.14,71.14,0,0,1,29.18-6c22.68,0,42.08,9.82,50.11,23.73,6.1-7.6,17.68-12.73,31-12.73C231.64,392.86,247.56,404.05,247.56,417.86Z"/><path class="l" d="M527.3,425.57a20.15,20.15,0,0,0,1.26-7c0-13.81-14.11-25-31.52-25-11.79,0-22.05,5.13-27.46,12.73-7.12-13.91-24.31-23.73-44.41-23.73a57.15,57.15,0,0,0-25.86,6c-8.58-11.39-24.28-19-42.23-19-24.58,0-45,14.32-48.59,33h-.58c-16.71,0-30.26,7.16-30.26,16a10.36,10.36,0,0,0,3.05,7Z"/><path class="m" d="M1171.38,424a21.39,21.39,0,0,0,1.18-7c0-13.81-13.21-25-29.51-25-11,0-20.65,5.13-25.71,12.73-6.66-13.91-22.78-23.73-41.58-23.73a50.64,50.64,0,0,0-24.21,6c-8-11.39-22.73-19-39.53-19-23,0-42.09,14.31-45.5,33H966c-15.64,0-28.33,7.16-28.33,16a10.72,10.72,0,0,0,2.85,7Z"/><path class="n" d="M1366.56,391.78v31.93H1108.25a11.81,11.81,0,0,1-3-4,7.38,7.38,0,0,1-.64-3,7.93,7.93,0,0,1,.89-3.57,14.62,14.62,0,0,1,4.87-5.14,32.09,32.09,0,0,1,6.83-3.48l.33-.13a63.6,63.6,0,0,1,17.57-3.5c1.72-.12,3.49-.18,5.28-.18h.68a29.67,29.67,0,0,1,2-5.87c.47-1,1-1.9,1.53-2.81.07-.13.15-.25.23-.38,7.16-11.47,22.24-20.16,40.66-23a85.84,85.84,0,0,1,13-1c21.21,0,39.76,7.63,49.9,19a77.56,77.56,0,0,1,30.58-6c23.74,0,44.07,9.82,52.48,23.73,5.64-6.71,15.76-11.5,27.64-12.53.92-.07,1.85-.13,2.79-.16h3.61Z"/><path class="o" d="M1020.32,424.43a19,19,0,0,0,1.33-7c0-13.81-14.9-25-33.29-25-12.45,0-23.29,5.13-29,12.73-7.52-13.91-25.68-23.73-46.9-23.73a63.09,63.09,0,0,0-27.32,6c-9.06-11.39-25.64-19-44.59-19-26,0-47.49,14.31-51.33,33h-.61c-17.65,0-32,7.16-32,16a10.14,10.14,0,0,0,3.22,7Z"/><path class="p" d="M682.32,425.14a19,19,0,0,0,1.33-7c0-13.8-14.9-25-33.29-25-12.45,0-23.29,5.14-29,12.73-7.52-13.91-25.68-23.73-46.9-23.73a63.09,63.09,0,0,0-27.32,6c-9.06-11.39-25.64-19-44.59-19-26,0-47.49,14.32-51.33,33h-.61c-17.65,0-32,7.17-32,16a10.12,10.12,0,0,0,3.22,7Z"/><path class="q" d="M834.65,425a25,25,0,0,0-45.78-19.27A38,38,0,0,0,733.14,388a39,39,0,0,0-72,14h-.46c-13.25,0-24,7.16-24,16a11.88,11.88,0,0,0,2.42,7Z"/><rect class="r" y="417.9" width="1366" height="17.75"/></svg>