<svg xmlns="http://www.w3.org/2000/svg" viewBox="0 0 1284.51 358.5"><defs><style>.a,.b{fill:#fff;}.b{font-size:257.94px;font-family:Avenir-LightOblique, Avenir;font-weight:300;font-style:oblique;}</style></defs><title>logo</title><polyline class="a" points="117.75 358.5 159.99 175.21 92.69 257.7 147.32 101.15 129.86 69.06 130.42 52.16 173.78 35.27 193.97 71.17 213.76 76.94 231.78 57.79 177.17 203.91 234.32 153.24"/><path class="a" d="M196.62,551.44a3,3,0,0,1,1.4,2,3.15,3.15,0,0,1-.7,2.44,2.22,2.22,0,0,1-1.75,1,4.55,4.55,0,0,1-2.14-.44,31.36,31.36,0,0,0-8.07-3.89,30.37,30.37,0,0,0-9.27-1.4,29,29,0,0,0-11.31,2.2,27.34,27.34,0,0,0-9.11,6.18,27.8,27.8,0,0,0-6,9.46,35.37,35.37,0,0,0,.05,24.37,28,28,0,0,0,6.13,9.51,26.64,26.64,0,0,0,9.11,6.08,29.46,29.46,0,0,0,11.16,2.09,29.9,29.9,0,0,0,9.22-1.39,35.19,35.19,0,0,0,8.12-3.79,3.13,3.13,0,0,1,2.09-.45,2.9,2.9,0,0,1,1.9,1.15A3.14,3.14,0,0,1,198,609a2.47,2.47,0,0,1-1.3,1.89,39.08,39.08,0,0,1-5.88,3,37.89,37.89,0,0,1-7.17,2.24,36.16,36.16,0,0,1-7.58.8,35.24,35.24,0,0,1-13.5-2.59,34.18,34.18,0,0,1-18.78-18.63A37.18,37.18,0,0,1,141,581.14a36.17,36.17,0,0,1,2.74-14.25,35.46,35.46,0,0,1,7.52-11.31,34.28,34.28,0,0,1,11.16-7.52,34.63,34.63,0,0,1,13.65-2.69,37.9,37.9,0,0,1,11,1.59A35.28,35.28,0,0,1,196.62,551.44Z" transform="translate(247.56 -283.25)"/><path class="a" d="M273,581.14a40.75,40.75,0,0,1-2.44,14.4,34.06,34.06,0,0,1-6.93,11.36A31,31,0,0,1,253,614.37a35.45,35.45,0,0,1-26.85,0,31.19,31.19,0,0,1-10.57-7.47,34.65,34.65,0,0,1-7-11.36,42.88,42.88,0,0,1,0-28.8,34.65,34.65,0,0,1,7-11.36,31.19,31.19,0,0,1,10.57-7.47,35.45,35.45,0,0,1,26.85,0,31,31,0,0,1,10.61,7.47,34.06,34.06,0,0,1,6.93,11.36A40.75,40.75,0,0,1,273,581.14Zm-6.38,0a33.45,33.45,0,0,0-3.48-15.59A26.6,26.6,0,0,0,253.57,555a25.82,25.82,0,0,0-14-3.79A25.62,25.62,0,0,0,216,565.55a37,37,0,0,0,0,31.18,27,27,0,0,0,37.57,10.52,26.6,26.6,0,0,0,9.52-10.52A33.45,33.45,0,0,0,266.57,581.14Z" transform="translate(247.56 -283.25)"/><path class="a" d="M290.09,546.26a3.42,3.42,0,0,1,1.44.35,3.49,3.49,0,0,1,1.25.95l27.5,41.25-2.69-.1,27.6-41.15a2.79,2.79,0,0,1,2.7-1.3,2.82,2.82,0,0,1,2,.85,2.91,2.91,0,0,1,.84,2.14V613a2.8,2.8,0,0,1-.94,2.09,3.14,3.14,0,0,1-2.24.9,3,3,0,0,1-2.2-.9,2.9,2.9,0,0,1-.89-2.09v-57.7l1.79.2-25.21,38.16a2.18,2.18,0,0,1-.95.95,2.76,2.76,0,0,1-2.69,0,2.8,2.8,0,0,1-1-.95l-25.31-38.56,1.89-1.29V613a2.94,2.94,0,0,1-.85,2.09,2.81,2.81,0,0,1-2.14.9,2.66,2.66,0,0,1-2.09-.9,3,3,0,0,1-.8-2.09V549.25a3,3,0,0,1,.85-2A2.75,2.75,0,0,1,290.09,546.26Z" transform="translate(247.56 -283.25)"/><path class="a" d="M372.4,546.26a3.45,3.45,0,0,1,1.44.35,3.58,3.58,0,0,1,1.25.95l27.5,41.25-2.69-.1,27.6-41.15a2.78,2.78,0,0,1,2.69-1.3,2.83,2.83,0,0,1,2.05.85,2.91,2.91,0,0,1,.84,2.14V613a2.8,2.8,0,0,1-.94,2.09,3.17,3.17,0,0,1-2.25.9,3,3,0,0,1-2.19-.9,2.87,2.87,0,0,1-.9-2.09v-57.7l1.8.2-25.21,38.16a2.18,2.18,0,0,1-.95.95,2.76,2.76,0,0,1-2.69,0,2.91,2.91,0,0,1-1.05-.95l-25.31-38.56,1.9-1.29V613a3,3,0,0,1-.85,2.09,2.81,2.81,0,0,1-2.14.9,2.64,2.64,0,0,1-2.09-.9,3,3,0,0,1-.8-2.09V549.25a3,3,0,0,1,.85-2A2.74,2.74,0,0,1,372.4,546.26Z" transform="translate(247.56 -283.25)"/><path class="a" d="M501,546.26a2.81,2.81,0,0,1,2.14.9,2.93,2.93,0,0,1,.85,2.09v41.26a26,26,0,0,1-3.49,13.35,26.6,26.6,0,0,1-9.36,9.52,26.74,26.74,0,0,1-26.56,0,26.53,26.53,0,0,1-9.42-9.52,26.07,26.07,0,0,1-3.48-13.35V549.25a3,3,0,0,1,.84-2.09,3.07,3.07,0,0,1,2.34-.9,3.06,3.06,0,0,1,3,3v41.26a19.87,19.87,0,0,0,2.74,10.36,20.81,20.81,0,0,0,7.33,7.32,19,19,0,0,0,10,2.74A19.26,19.26,0,0,0,488,608.19a21.25,21.25,0,0,0,7.37-7.32,19.54,19.54,0,0,0,2.79-10.36V549.25a3.05,3.05,0,0,1,.8-2.09A2.66,2.66,0,0,1,501,546.26Z" transform="translate(247.56 -283.25)"/><path class="a" d="M573.68,546.26a2.64,2.64,0,0,1,2,.8,2.8,2.8,0,0,1,.75,2v63.78a3,3,0,0,1-.94,2.34,3.18,3.18,0,0,1-2.15.85,3.84,3.84,0,0,1-1.34-.25,2.53,2.53,0,0,1-1-.75l-44.44-59.79,1.69-1v59.1a2.58,2.58,0,0,1-.79,1.89,2.74,2.74,0,0,1-2,.8,2.65,2.65,0,0,1-2.79-2.69V549.25a2.84,2.84,0,0,1,.85-2.19,2.88,2.88,0,0,1,2-.8,4.07,4.07,0,0,1,1.3.25,2.15,2.15,0,0,1,1.09.85l43.95,59.19-1,1.79V549.05a2.73,2.73,0,0,1,2.79-2.79Z" transform="translate(247.56 -283.25)"/><path class="a" d="M601.48,612.93a3.25,3.25,0,0,1-1,2.19,3,3,0,0,1-2.14.9,2.91,2.91,0,0,1-2.3-.9,3.19,3.19,0,0,1-.79-2.19V549.35a3,3,0,0,1,.89-2.19,3.1,3.1,0,0,1,2.29-.9,3.06,3.06,0,0,1,2.15.9,2.91,2.91,0,0,1,.94,2.19Z" transform="translate(247.56 -283.25)"/><path class="a" d="M671,551.44a3,3,0,0,1,1.39,2,3.14,3.14,0,0,1-.69,2.44,2.22,2.22,0,0,1-1.75,1,4.53,4.53,0,0,1-2.14-.44,31.36,31.36,0,0,0-8.07-3.89,30.46,30.46,0,0,0-9.27-1.4,29,29,0,0,0-11.31,2.2,27.28,27.28,0,0,0-9.12,6.18,28,28,0,0,0-6,9.46,35.37,35.37,0,0,0,.05,24.37,28.12,28.12,0,0,0,6.13,9.51,26.68,26.68,0,0,0,9.12,6.08,29.39,29.39,0,0,0,11.16,2.09,30,30,0,0,0,9.22-1.39,35.39,35.39,0,0,0,8.12-3.79,3.12,3.12,0,0,1,2.09-.45,3,3,0,0,1,1.9,1.15,3.09,3.09,0,0,1,.59,2.39,2.44,2.44,0,0,1-1.29,1.89,39.08,39.08,0,0,1-5.88,3,37.77,37.77,0,0,1-7.18,2.24,36.07,36.07,0,0,1-7.57.8,35.24,35.24,0,0,1-13.5-2.59,34.23,34.23,0,0,1-18.79-18.63,37.18,37.18,0,0,1-2.79-14.65,36.17,36.17,0,0,1,2.75-14.25,35.46,35.46,0,0,1,7.52-11.31,34.28,34.28,0,0,1,11.16-7.52,34.63,34.63,0,0,1,13.65-2.69,37.79,37.79,0,0,1,11,1.59A35.34,35.34,0,0,1,671,551.44Z" transform="translate(247.56 -283.25)"/><path class="a" d="M708.51,554l-24.22,60.08a3.24,3.24,0,0,1-1.1,1.5,2.66,2.66,0,0,1-1.59.5,2.85,2.85,0,0,1-2.19-.75,2.58,2.58,0,0,1-.7-1.85,2.54,2.54,0,0,1,.1-1.19L705.12,548a2.82,2.82,0,0,1,1.14-1.55A3.33,3.33,0,0,1,708,546a3.06,3.06,0,0,1,1.84.55A3.59,3.59,0,0,1,711,548L737.2,612a3.6,3.6,0,0,1,.2,1.2,2.65,2.65,0,0,1-.89,2.14,3.18,3.18,0,0,1-2.1.75,2.91,2.91,0,0,1-1.74-.55,3.59,3.59,0,0,1-1.15-1.45l-24.81-60.58Zm-18.44,41.85,2.49-5.88h30.89l1.2,5.88Z" transform="translate(247.56 -283.25)"/><path class="a" d="M741.59,551.94a3,3,0,0,1-2.09-.79,2.57,2.57,0,0,1-.9-2,2.66,2.66,0,0,1,.9-2.09,3,3,0,0,1,2.09-.8h47.33a3.18,3.18,0,0,1,2.19.8,2.66,2.66,0,0,1,.9,2.09,2.49,2.49,0,0,1-.9,2,3.29,3.29,0,0,1-2.19.75ZM765.31,616a3.1,3.1,0,0,1-2.3-.9,2.9,2.9,0,0,1-.89-2.09V549.55h6.27V613a2.86,2.86,0,0,1-.89,2.09A3,3,0,0,1,765.31,616Z" transform="translate(247.56 -283.25)"/><path class="a" d="M811,612.93a3.29,3.29,0,0,1-1,2.19,3.06,3.06,0,0,1-2.15.9,2.9,2.9,0,0,1-2.29-.9,3.2,3.2,0,0,1-.8-2.19V549.35a3,3,0,0,1,.9-2.19,3.1,3.1,0,0,1,2.29-.9,3.06,3.06,0,0,1,2.15.9,2.94,2.94,0,0,1,.94,2.19Z" transform="translate(247.56 -283.25)"/><path class="a" d="M891.86,581.14a40.75,40.75,0,0,1-2.45,14.4,33.87,33.87,0,0,1-6.92,11.36,31.16,31.16,0,0,1-10.61,7.47,35.48,35.48,0,0,1-26.86,0,31.25,31.25,0,0,1-10.56-7.47,34.67,34.67,0,0,1-7-11.36,42.88,42.88,0,0,1,0-28.8,34.67,34.67,0,0,1,7-11.36A31.25,31.25,0,0,1,845,547.91a35.48,35.48,0,0,1,26.86,0,31.16,31.16,0,0,1,10.61,7.47,33.87,33.87,0,0,1,6.92,11.36A40.75,40.75,0,0,1,891.86,581.14Zm-6.38,0A33.45,33.45,0,0,0,882,565.55,26.6,26.6,0,0,0,872.47,555a25.79,25.79,0,0,0-14-3.79,25.59,25.59,0,0,0-23.56,14.31,37,37,0,0,0,0,31.18,26.95,26.95,0,0,0,37.56,10.52A26.6,26.6,0,0,0,882,596.73,33.45,33.45,0,0,0,885.48,581.14Z" transform="translate(247.56 -283.25)"/><path class="a" d="M957,546.26a2.68,2.68,0,0,1,2.05.8,2.79,2.79,0,0,1,.74,2v63.78a3,3,0,0,1-.94,2.34,3.16,3.16,0,0,1-2.15.85,3.84,3.84,0,0,1-1.34-.25,2.53,2.53,0,0,1-1-.75l-44.44-59.79,1.7-1v59.1a2.59,2.59,0,0,1-.8,1.89,2.71,2.71,0,0,1-2,.8,2.68,2.68,0,0,1-2-.8,2.65,2.65,0,0,1-.74-1.89V549.25a2.81,2.81,0,0,1,2.88-3,4.07,4.07,0,0,1,1.3.25,2.22,2.22,0,0,1,1.1.85l43.94,59.19-1,1.79V549.05a2.73,2.73,0,0,1,2.79-2.79Z" transform="translate(247.56 -283.25)"/><path class="a" d="M997.78,617a31.45,31.45,0,0,1-13.15-2.34A36,36,0,0,1,974,607.25a5.26,5.26,0,0,1-.84-1.1,2.64,2.64,0,0,1-.35-1.39,3.11,3.11,0,0,1,1-2.2,2.89,2.89,0,0,1,2.14-1,3.06,3.06,0,0,1,2.19,1,26.82,26.82,0,0,0,8.82,6.38,25.84,25.84,0,0,0,10.61,2.19,22.92,22.92,0,0,0,8.52-1.49,14,14,0,0,0,5.93-4.29,10.17,10.17,0,0,0,2.19-6.47,11.14,11.14,0,0,0-2.54-7.38,19.23,19.23,0,0,0-6.53-4.68,60.16,60.16,0,0,0-9.06-3.29q-4.1-1.29-7.83-2.84a27.24,27.24,0,0,1-6.57-3.79,15.45,15.45,0,0,1-4.44-5.53,17.9,17.9,0,0,1-1.59-7.87,16.41,16.41,0,0,1,2.79-9.41,18.55,18.55,0,0,1,7.92-6.48,28.44,28.44,0,0,1,11.91-2.34,32.53,32.53,0,0,1,11.31,2,19.63,19.63,0,0,1,8.62,5.88,4.53,4.53,0,0,1,1.49,2.89,2.8,2.8,0,0,1-1,2,3.15,3.15,0,0,1-2.2.95,2.28,2.28,0,0,1-1.69-.7,17.5,17.5,0,0,0-4.29-3.74,21.94,21.94,0,0,0-5.72-2.54,23.61,23.61,0,0,0-6.53-.89,23.27,23.27,0,0,0-8.42,1.44,13.51,13.51,0,0,0-5.88,4.14,10.19,10.19,0,0,0-2.14,6.57,9.76,9.76,0,0,0,2.39,6.83,18.42,18.42,0,0,0,6.28,4.38c2.59,1.17,5.34,2.25,8.27,3.24q4.27,1.2,8.22,2.74a29.13,29.13,0,0,1,7,3.84,16.24,16.24,0,0,1,4.79,5.78,19.57,19.57,0,0,1,1.74,8.77,15.46,15.46,0,0,1-2.89,9.16,19.91,19.91,0,0,1-7.92,6.48A28.07,28.07,0,0,1,997.78,617Z" transform="translate(247.56 -283.25)"/><text class="b" transform="translate(357.5 220.28)">TREPYX</text><path class="a" d="M66.55,419c0-13.07-12.1-23.72-27.29-24.49-5-13.47-18.75-23.15-34.93-23.15a41.08,41.08,0,0,0-4.32.24c-3.52-39.89-37.92-71.22-79.87-71.22-35.44,0-65.48,22.36-76.09,53.35a74.66,74.66,0,0,0-27.49-5.16c-35.41,0-64.12,23.94-64.12,53.48A45.29,45.29,0,0,0-244.25,419Z" transform="translate(247.56 -283.25)"/></svg>