<svg xmlns="http://www.w3.org/2000/svg" viewBox="0 0 536.5 139.69"><defs><linearGradient id="A" x1="1.954" y1="76.318" x2="139.614" y2="74.942" gradientUnits="userSpaceOnUse"><stop offset="0" stop-color="#fff"/><stop offset="1" stop-color="#231f20"/></linearGradient></defs><g fill="#fff" stroke="#fff" stroke-miterlimit="10" stroke-width="2"><path d="M58.38 103.3h-1.45l-53.88.43 97.36-72.4-6.78 35.7"/><path d="M99.7 32.9L59.53 81.15"/></g><path d="M5.14 103.67l119.97-.85 12.65-54.05-132.62 54.9z" stroke="#fff" stroke-miterlimit="10" stroke-width="2" fill="url(#A)"/><g fill="#fff"><path d="M7.8 103.4l124.75-30.8z" stroke="#fff" stroke-miterlimit="10" stroke-width="2"/><path d="M184.8 112.24a1.26 1.26 0 0 1 .58.86 1.31 1.31 0 0 1-.29 1 1 1 0 0 1-.73.44 2 2 0 0 1-.9-.19 12.89 12.89 0 0 0-3.38-1.63 12.65 12.65 0 0 0-3.88-.58 12 12 0 0 0-4.73.92 11.37 11.37 0 0 0-3.81 2.58 11.64 11.64 0 0 0-2.53 4 13.7 13.7 0 0 0-.89 5.05 13.89 13.89 0 0 0 .91 5.15 11.72 11.72 0 0 0 2.57 4 11.39 11.39 0 0 0 3.81 2.55 13 13 0 0 0 8.53.29 14.86 14.86 0 0 0 3.4-1.59 1.31 1.31 0 0 1 .88-.18 1.2 1.2 0 0 1 .79.48 1.29 1.29 0 0 1 .25 1 1.06 1.06 0 0 1-.54.79 17.52 17.52 0 0 1-2.46 1.27 16.24 16.24 0 0 1-3 .94 15.44 15.44 0 0 1-3.17.33 14.84 14.84 0 0 1-5.65-1.08 14.36 14.36 0 0 1-7.86-7.8 15.54 15.54 0 0 1-1.17-6.13 15 15 0 0 1 4.3-10.7 14.26 14.26 0 0 1 4.67-3.15 14.54 14.54 0 0 1 5.71-1.12 15.92 15.92 0 0 1 4.59.66 15.08 15.08 0 0 1 4 1.84zm31.95 12.43a17.15 17.15 0 0 1-1 6 14.25 14.25 0 0 1-2.9 4.75 13 13 0 0 1-4.44 3.13 14.91 14.91 0 0 1-11.24 0 13 13 0 0 1-4.42-3.13 14.63 14.63 0 0 1-2.92-4.75 18 18 0 0 1 0-12.06 14.63 14.63 0 0 1 2.92-4.75 13 13 0 0 1 4.42-3.13 14.91 14.91 0 0 1 11.24 0 13 13 0 0 1 4.44 3.13 14.25 14.25 0 0 1 2.9 4.75 17.11 17.11 0 0 1 1 6.06zm-2.67 0a13.93 13.93 0 0 0-1.46-6.53 11.16 11.16 0 0 0-4-4.4 10.84 10.84 0 0 0-5.86-1.58 10.69 10.69 0 0 0-9.86 6 15.53 15.53 0 0 0 0 13.06 11.28 11.28 0 0 0 15.72 4.4 11.16 11.16 0 0 0 4-4.4 13.93 13.93 0 0 0 1.45-6.55zm9.84-14.6a1.4 1.4 0 0 1 .61.15 1.58 1.58 0 0 1 .52.39l11.5 17.27h-1.13L247 110.65a1.33 1.33 0 0 1 2-.18 1.21 1.21 0 0 1 .35.89V138a1.18 1.18 0 0 1-.39.88 1.34 1.34 0 0 1-.94.38 1.26 1.26 0 0 1-.92-.38 1.19 1.19 0 0 1-.37-.88v-24.14l.75.08-10.56 16a.89.89 0 0 1-.39.4 1.14 1.14 0 0 1-1.13 0 1.3 1.3 0 0 1-.44-.4l-10.6-16.14.8-.54V138a1.21 1.21 0 0 1-.35.88 1.2 1.2 0 0 1-.9.38 1.11 1.11 0 0 1-.87-.38 1.25 1.25 0 0 1-.34-.88v-26.7a1.24 1.24 0 0 1 .36-.85 1.12 1.12 0 0 1 .87-.4zm34.45 0a1.4 1.4 0 0 1 .61.15 1.58 1.58 0 0 1 .52.39l11.5 17.27h-1.13l11.55-17.23a1.2 1.2 0 0 1 1.13-.54 1.18 1.18 0 0 1 .86.36 1.21 1.21 0 0 1 .35.89V138a1.15 1.15 0 0 1-.4.88 1.3 1.3 0 0 1-.93.38 1.24 1.24 0 0 1-.92-.38 1.2 1.2 0 0 1-.38-.88v-24.14l.75.08-10.55 16a.89.89 0 0 1-.39.4 1.18 1.18 0 0 1-.57.15 1.15 1.15 0 0 1-.56-.15 1.21 1.21 0 0 1-.44-.4l-10.6-16.14.8-.54V138a1.26 1.26 0 0 1-.35.88 1.2 1.2 0 0 1-.9.38 1.14 1.14 0 0 1-.88-.38 1.28 1.28 0 0 1-.33-.88v-26.7a1.24 1.24 0 0 1 .36-.85 1.12 1.12 0 0 1 .89-.4zm53.83 0a1.2 1.2 0 0 1 .9.38 1.25 1.25 0 0 1 .35.87v17.27a10.82 10.82 0 0 1-1.46 5.59 11.08 11.08 0 0 1-3.92 4 10.51 10.51 0 0 1-5.54 1.48 10.62 10.62 0 0 1-5.57-1.48 11 11 0 0 1-3.94-4 10.82 10.82 0 0 1-1.46-5.59v-17.27a1.25 1.25 0 0 1 .35-.87 1.3 1.3 0 0 1 1-.38 1.2 1.2 0 0 1 .88.38 1.19 1.19 0 0 1 .37.87v17.27a8.35 8.35 0 0 0 1.15 4.34 8.74 8.74 0 0 0 3.07 3.06 7.91 7.91 0 0 0 4.17 1.15 8 8 0 0 0 4.21-1.15 8.87 8.87 0 0 0 3.09-3.06 8.27 8.27 0 0 0 1.16-4.34v-17.27a1.24 1.24 0 0 1 .34-.87 1.11 1.11 0 0 1 .85-.38zm30.4 0a1.09 1.09 0 0 1 .86.34 1.16 1.16 0 0 1 .31.83v26.7a1.24 1.24 0 0 1-.39 1 1.32 1.32 0 0 1-.9.36 1.51 1.51 0 0 1-.56-.11 1 1 0 0 1-.44-.31l-18.6-25 .7-.42v24.73a1 1 0 0 1-.34.79 1.22 1.22 0 0 1-1.69 0 1.14 1.14 0 0 1-.31-.79v-26.86a1.2 1.2 0 0 1 1.21-1.25 1.58 1.58 0 0 1 .54.11.86.86 0 0 1 .46.35l18.4 24.77-.4.75v-24.8a1.13 1.13 0 0 1 .33-.83 1.1 1.1 0 0 1 .83-.34zm11.65 27.9a1.36 1.36 0 0 1-.44.92 1.26 1.26 0 0 1-.89.38 1.21 1.21 0 0 1-1-.38 1.31 1.31 0 0 1-.34-.92V111.4a1.24 1.24 0 0 1 .38-.92 1.3 1.3 0 0 1 1-.38 1.26 1.26 0 0 1 .89.38 1.19 1.19 0 0 1 .4.92zm29.1-25.73a1.28 1.28 0 0 1 .59.86 1.36 1.36 0 0 1-.3 1 .93.93 0 0 1-.73.44 1.93 1.93 0 0 1-.85-.13 13 13 0 0 0-3.38-1.63 12.74 12.74 0 0 0-3.88-.58 12 12 0 0 0-4.73.92 11.41 11.41 0 0 0-3.82 2.58 11.61 11.61 0 0 0-2.52 4 13.71 13.71 0 0 0-.9 5.05 13.89 13.89 0 0 0 .92 5.15 11.7 11.7 0 0 0 2.56 4 11.34 11.34 0 0 0 3.82 2.55 12.39 12.39 0 0 0 4.67.87 12.52 12.52 0 0 0 3.86-.58 14.86 14.86 0 0 0 3.4-1.59 1.28 1.28 0 0 1 .87-.18 1.18 1.18 0 0 1 .79.48 1.3 1.3 0 0 1 .26 1 1 1 0 0 1-.55.79 16.48 16.48 0 0 1-2.46 1.27 15.9 15.9 0 0 1-3 .94 15.51 15.51 0 0 1-3.17.33 14.8 14.8 0 0 1-5.65-1.08 14.36 14.36 0 0 1-7.86-7.8 15.54 15.54 0 0 1-1.17-6.13 15 15 0 0 1 1.15-6 14.77 14.77 0 0 1 3.15-4.74 14.26 14.26 0 0 1 4.67-3.15 14.54 14.54 0 0 1 5.71-1.12 16 16 0 0 1 4.59.66 15.16 15.16 0 0 1 3.96 1.82zm15.7 1.1l-10.13 25.14a1.4 1.4 0 0 1-.46.63 1.13 1.13 0 0 1-.67.21 1.21 1.21 0 0 1-.92-.32 1.08 1.08 0 0 1-.29-.77 1.12 1.12 0 0 1 0-.5l11-26.94a1.16 1.16 0 0 1 .48-.64 1.35 1.35 0 0 1 .73-.19 1.2 1.2 0 0 1 .77.23 1.43 1.43 0 0 1 .48.6l11 26.82a1.43 1.43 0 0 1 .09.5 1.08 1.08 0 0 1-.38.89 1.32 1.32 0 0 1-.88.32 1.24 1.24 0 0 1-.73-.23 1.63 1.63 0 0 1-.48-.61l-10.38-25.35zm-7.7 17.5l1-2.46h12.93l.5 2.46zm21.53-18.43a1.28 1.28 0 0 1-.88-.33 1.08 1.08 0 0 1-.37-.84 1.1 1.1 0 0 1 .37-.87 1.25 1.25 0 0 1 .88-.34h19.8a1.29 1.29 0 0 1 .91.34 1.11 1.11 0 0 1 .38.87 1.07 1.07 0 0 1-.38.86 1.36 1.36 0 0 1-.91.31zm9.92 26.82a1.3 1.3 0 0 1-1-.38 1.19 1.19 0 0 1-.37-.88V111.4h2.63V138a1.2 1.2 0 0 1-.38.88 1.26 1.26 0 0 1-.88.38zm19.14-1.25a1.41 1.41 0 0 1-.44.92 1.3 1.3 0 0 1-.9.38 1.21 1.21 0 0 1-1-.38 1.35 1.35 0 0 1-.33-.92V111.4a1.24 1.24 0 0 1 .37-.92 1.3 1.3 0 0 1 1-.38 1.28 1.28 0 0 1 .9.38 1.23 1.23 0 0 1 .4.92zm33.82-13.3a17.15 17.15 0 0 1-1 6 14.41 14.41 0 0 1-2.9 4.75 13 13 0 0 1-4.44 3.13 14.91 14.91 0 0 1-11.24 0 13 13 0 0 1-4.42-3.13 14.3 14.3 0 0 1-2.92-4.75 17.84 17.84 0 0 1 0-12.06 14.3 14.3 0 0 1 2.92-4.75 13 13 0 0 1 4.42-3.13 14.91 14.91 0 0 1 11.24 0 13 13 0 0 1 4.44 3.13 14.41 14.41 0 0 1 2.9 4.75 17.11 17.11 0 0 1 1 6.06zm-2.67 0a14.06 14.06 0 0 0-1.46-6.53 11.16 11.16 0 0 0-4-4.4 11 11 0 0 0-15.73 4.4 15.53 15.53 0 0 0 0 13.06 11.3 11.3 0 0 0 15.73 4.4 11.16 11.16 0 0 0 4-4.4 14.06 14.06 0 0 0 1.42-6.53zm29.96-14.6a1.11 1.11 0 0 1 .86.34 1.16 1.16 0 0 1 .31.83v26.7a1.22 1.22 0 0 1-.4 1 1.28 1.28 0 0 1-.89.36 1.56 1.56 0 0 1-.57-.11 1 1 0 0 1-.43-.31l-18.6-25 .7-.42v24.73a1.07 1.07 0 0 1-.33.79 1.16 1.16 0 0 1-2-.79v-26.86a1.2 1.2 0 0 1 .35-.91 1.18 1.18 0 0 1 .86-.34 1.58 1.58 0 0 1 .54.11.86.86 0 0 1 .46.35l18.4 24.77-.42.75v-24.8a1.16 1.16 0 0 1 1.17-1.17zm17 29.6a13.24 13.24 0 0 1-5.51-1 15.06 15.06 0 0 1-4.46-3.1 2.15 2.15 0 0 1-.35-.46 1.13 1.13 0 0 1-.15-.59 1.26 1.26 0 0 1 .4-.91 1.19 1.19 0 0 1 .89-.42 1.27 1.27 0 0 1 .92.42 11.6 11.6 0 0 0 3.69 2.67 10.85 10.85 0 0 0 4.44.91 9.68 9.68 0 0 0 3.57-.62 5.85 5.85 0 0 0 2.48-1.8 4.25 4.25 0 0 0 .92-2.71 4.68 4.68 0 0 0-1.06-3.08 8.2 8.2 0 0 0-2.74-2 25 25 0 0 0-3.79-1.38l-3.28-1.2a11.64 11.64 0 0 1-2.75-1.58 6.54 6.54 0 0 1-1.85-2.32 7.4 7.4 0 0 1-.67-3.29 6.85 6.85 0 0 1 1.17-3.94 7.71 7.71 0 0 1 3.31-2.71 11.82 11.82 0 0 1 5-1 13.54 13.54 0 0 1 4.73.83 8.24 8.24 0 0 1 3.61 2.46 1.92 1.92 0 0 1 .62 1.21 1.17 1.17 0 0 1-.41.85 1.3 1.3 0 0 1-.92.4 1 1 0 0 1-.71-.29 7 7 0 0 0-1.79-1.56 9.3 9.3 0 0 0-2.4-1.07 9.94 9.94 0 0 0-2.73-.37 9.79 9.79 0 0 0-3.53.6 5.68 5.68 0 0 0-2.46 1.73 4.26 4.26 0 0 0-.89 2.75 4.09 4.09 0 0 0 1 2.86 7.73 7.73 0 0 0 2.62 1.84l3.47 1.35a35.56 35.56 0 0 1 3.44 1.15 12.12 12.12 0 0 1 2.91 1.6 6.85 6.85 0 0 1 2 2.42 8.3 8.3 0 0 1 .73 3.67 6.54 6.54 0 0 1-1.21 3.84 8.44 8.44 0 0 1-3.32 2.71 11.64 11.64 0 0 1-4.94 1.12z"/></g><text transform="translate(148.52 92.19)" fill="#fff" font-size="107.95" font-family="Avenir-LightOblique,Avenir" font-weight="300" font-style="oblique">TREPYX</text></svg>