<svg xmlns="http://www.w3.org/2000/svg" viewBox="0 0 1366 682.8"><defs><style>.a{fill:blue;}</style></defs><title>section-blue</title><path class="a" d="M1366,0V339.9H0v-.78C137.65,269.94,284.23,174.28,585.5,195.4c118,8.27,242.18-14.09,359.5-47.14q15.78-4.44,31.38-9.13l2.38-.72,5.81-1.76,4.53-1.38q6.89-2.11,13.73-4.27l2.85-.89,6-1.9,1.48-.48,2.29-.73,5.41-1.74,3.65-1.18,3.36-1.1,1.5-.49q6.6-2.16,13.16-4.35l4.71-1.58,1.48-.5c4.34-1.45,8.65-2.92,13-4.38l7.12-2.45q26.34-9.08,51.75-18.35l1-.37q14-5.07,27.59-10.14l1.33-.5,7.36-2.74,1.43-.53,16.36-6.14,5.61-2.12,1.48-.56,11.07-4.2,11-4.18,5.73-2.18,17.2-6.58,2.87-1.09,18.52-7.08,12.07-4.61,4.46-1.69,7.61-2.89q8.58-3.26,16.9-6.37l8-3,3.72-1.38L1306,21l3.88-1.43,4.69-1.72,3.89-1.41c1.57-.58,3.14-1.14,4.69-1.7,1.3-.47,2.59-.94,3.88-1.39l2.64-.95,3.25-1.16q8.13-2.88,15.93-5.54l2.72-.93q6.14-2.07,12-4Z"/><path class="a" d="M0,682.8V342.9H1366v.78c-137.65,69.18-284.23,164.84-585.5,143.72-118-8.27-242.18,14.09-359.5,47.14q-15.78,4.44-31.38,9.13l-2.38.72-5.81,1.76-4.53,1.38q-6.88,2.12-13.73,4.27l-2.85.89-6,1.9-1.48.48-2.29.73-5.41,1.74-3.65,1.18-3.36,1.1-1.5.49q-6.6,2.16-13.16,4.35l-4.71,1.58-1.48.5c-4.34,1.45-8.65,2.92-12.95,4.38l-7.12,2.45q-26.34,9.07-51.75,18.35l-1,.37q-13.95,5.07-27.59,10.14l-1.33.5-7.36,2.74-1.43.53-16.36,6.14-5.61,2.12-1.48.56-11.07,4.2-11,4.18-5.73,2.18-17.2,6.58-2.87,1.09-18.52,7.08-12.07,4.61-4.46,1.69-7.61,2.89q-8.58,3.26-16.9,6.37l-8,3-3.72,1.38L60,661.8l-3.88,1.43L51.39,665l-3.89,1.41c-1.57.58-3.14,1.14-4.69,1.7-1.3.47-2.59.94-3.88,1.39l-2.64.95L33,671.56q-8.13,2.88-15.93,5.54l-2.72.93q-6.13,2.07-12,4Z"/></svg>